0
SECTION
2
HEADER
9
$INSUNITS
70
4
9
$ACADVER
1
AC1014
9
$HANDSEED
5
FFFF
0
ENDSEC
0
SECTION
2
TABLES
0
TABLE
2
VPORT
5
8
100
AcDbSymbolTable
0
ENDTAB
0
TABLE
2
LTYPE
5
5
100
AcDbSymbolTable
0
LTYPE
5
14
100
AcDbSymbolTableRecord
100
AcDbLinetypeTableRecord
2
BYBLOCK
70
0
0
LTYPE
5
15
100
AcDbSymbolTableRecord
100
AcDbLinetypeTableRecord
2
BYLAYER
70
0
0
ENDTAB
0
TABLE
2
LAYER
5
2
100
AcDbSymbolTable
70
2
0
LAYER
5
50
100
AcDbSymbolTableRecord
100
AcDbLayerTableRecord
2
0
70
0
6
CONTINUOUS
0
ENDTAB
0
TABLE
2
STYLE
5
3
100
AcDbSymbolTable
70
1
0
STYLE
5
11
100
AcDbSymbolTableRecord
100
AcDbTextStyleTableRecord
2
STANDARD
70
0
0
ENDTAB
0
TABLE
2
VIEW
5
6
100
AcDbSymbolTable
70
0
0
ENDTAB
0
TABLE
2
UCS
5
7
100
AcDbSymbolTable
70
0
0
ENDTAB
0
TABLE
2
APPID
5
9
100
AcDbSymbolTable
70
2
0
APPID
5
12
100
AcDbSymbolTableRecord
100
AcDbRegAppTableRecord
2
ACAD
70
0
0
ENDTAB
0
TABLE
2
DIMSTYLE
5
A
100
AcDbSymbolTable
70
1
0
ENDTAB
0
TABLE
2
BLOCK_RECORD
5
1
100
AcDbSymbolTable
70
1
0
BLOCK_RECORD
5
1F
100
AcDbSymbolTableRecord
100
AcDbBlockTableRecord
2
*MODEL_SPACE
0
BLOCK_RECORD
5
1B
100
AcDbSymbolTableRecord
100
AcDbBlockTableRecord
2
*PAPER_SPACE
0
ENDTAB
0
ENDSEC
0
SECTION
2
BLOCKS
0
BLOCK
5
20
100
AcDbEntity
100
AcDbBlockBegin
2
*MODEL_SPACE
0
ENDBLK
5
21
100
AcDbEntity
100
AcDbBlockEnd
0
BLOCK
5
1C
100
AcDbEntity
100
AcDbBlockBegin
2
*PAPER_SPACE
0
ENDBLK
5
1D
100
AcDbEntity
100
AcDbBlockEnd
0
ENDSEC
0
SECTION
2
ENTITIES
0
LWPOLYLINE
5
100
100
AcDbEntity
8
0
100
AcDbPolyline
90
20
70
1
43
0.0
10
175.59063966878401
20
27.417451642068599
10
175.59070754803699
20
24.417453943831102
10
155.59084885352101
20
24.417444891083004
10
155.59077484827
20
27.417407847504904
10
76.190799685097005
20
27.417451759287101
10
76.190763338903096
20
24.417472439045103
10
56.1907820409455
20
24.417377538845798
10
56.190836765134698
20
27.417461084534402
10
46.051695224701405
20
27.417411931874
10
46.051701030662301
20
57.417411487539908
10
56.190766961465997
20
57.417438150381805
10
56.190803307659898
20
60.417417470623903
10
76.190766227622206
20
60.417408145376506
10
76.190799365059405
20
57.417416573137501
10
155.59078065423103
20
57.417407403170905
10
155.590759768791
20
60.417468459041004
10
175.590728814751
20
60.417493875609203
10
175.590639348747
20
57.41741645591901
10
185.86891440972704
20
57.417470374139505
10
185.868896351769
20
27.417401334842403
0
SPLINE
5
101
100
AcDbEntity
8
0
100
AcDbSpline
70
0
71
3
72
10
73
6
74
0
42
0.000000001
43
0.0000000001
44
0.0000000001
40
1087.46795284426
40
1087.46795284426
40
1087.46795284426
40
1087.46795284426
40
1088.46795284426
40
1088.46795284426
40
1089.4679492662899
40
1089.4679492662899
40
1089.4679492662899
40
1089.4679492662899
10
69.2908166515994
20
42.417426409955503
30
5.5511151231257827e-16
10
69.290793833944306
20
40.705317546654697
30
5.5511151231257827e-16
10
67.902920635515798
20
39.317452166494199
30
5.5511151231257827e-16
10
64.478696782915804
20
39.317463059988697
30
5.5511151231257827e-16
10
63.090831402755299
20
40.705336258417198
30
5.5511151231257827e-16
10
63.09081947859471
20
42.4174512477165
30
5.5511151231257827e-16
0
SPLINE
5
102
100
AcDbEntity
8
0
100
AcDbSpline
70
0
71
3
72
10
73
6
74
0
42
0.000000001
43
0.0000000001
44
0.0000000001
40
1089.46795284426
40
1089.46795284426
40
1089.46795284426
40
1089.46795284426
40
1090.46795284426
40
1090.46795284426
40
1091.46801372353
40
1091.46801372353
40
1091.46801372353
40
1091.46801372353
10
63.09081947859471
20
42.4174512477165
30
5.5511151231257827e-16
10
63.090842296249797
20
44.129560111017298
30
5.5511151231257827e-16
10
64.478721620676794
20
45.517460232993301
30
5.5511151231257827e-16
10
67.9028351218317
20
45.517432975678702
30
5.5511151231257827e-16
10
69.290839469254394
20
44.129535273256302
30
5.5511151231257827e-16
10
69.2908166515994
20
42.417426409955503
30
5.5511151231257827e-16
0
SPLINE
5
103
100
AcDbEntity
8
0
100
AcDbSpline
70
0
71
3
72
10
73
6
74
0
42
0.000000001
43
0.0000000001
44
0.0000000001
40
1091.46795284426
40
1091.46795284426
40
1091.46795284426
40
1091.46795284426
40
1092.46795284426
40
1092.46795284426
40
1093.4679564222399
40
1093.4679564222399
40
1093.4679564222399
40
1093.4679564222399
10
168.69077311273
20
42.417477398372597
30
5.5511151231257827e-16
10
168.69075029507499
20
40.705368535071798
30
5.5511151231257827e-16
10
167.30285871865104
20
39.317398929464701
30
5.5511151231257827e-16
10
163.87863486605099
20
39.3174098229591
30
5.5511151231257827e-16
10
162.49077561188901
20
40.705317763203198
30
5.5511151231257827e-16
10
162.49076368772901
20
42.417432752502499
30
5.5511151231257827e-16
0
SPLINE
5
104
100
AcDbEntity
8
0
100
AcDbSpline
70
0
71
3
72
10
73
6
74
0
42
0.000000001
43
0.0000000001
44
0.0000000001
40
1093.46795284426
40
1093.46795284426
40
1093.46795284426
40
1093.46795284426
40
1094.46795284426
40
1094.46795284426
40
1095.46796715864
40
1095.46796715864
40
1095.46796715864
40
1095.46796715864
10
162.49076368772901
20
42.417432752502499
30
5.5511151231257827e-16
10
162.49078650538399
20
44.129541615803298
30
5.5511151231257827e-16
10
163.87865970381199
20
45.517406995963803
30
5.5511151231257827e-16
10
167.302901934408
20
45.517500327915997
30
5.5511151231257827e-16
10
168.69077755239002
20
44.129482036226698
30
5.5511151231257827e-16
10
168.69077311273
20
42.417477398372597
30
5.5511151231257827e-16
0
SPLINE
5
105
100
AcDbEntity
8
0
100
AcDbSpline
70
0
71
3
72
10
73
6
74
0
42
0.000000001
43
0.0000000001
44
0.0000000001
40
1095.46795284426
40
1095.46795284426
40
1095.46795284426
40
1095.46795284426
40
1096.46795284426
40
1096.46795284426
40
1097.41888907926
40
1097.41888907926
40
1097.41888907926
40
1097.41888907926
10
145.590766368098
20
46.77306928655851
30
5.5511151231257827e-16
10
145.59076382706104
20
43.869373563790106
30
5.5511151231257827e-16
10
145.59081239165801
20
40.965561363578104
30
5.5511151231257827e-16
10
145.590842994474
20
35.300376998703896
30
5.5511151231257827e-16
10
143.35219612880303
20
33.061696816180401
30
5.5511151231257827e-16
10
140.59082396413999
20
33.061714777962607
30
5.5511151231257827e-16
0
SPLINE
5
106
100
AcDbEntity
8
0
100
AcDbSpline
70
0
71
3
72
12
73
8
74
0
42
0.000000001
43
0.0000000001
44
0.0000000001
40
1097.46795284426
40
1097.46795284426
40
1097.46795284426
40
1097.46795284426
40
1098.46795284426
40
1098.46795284426
40
1098.6356515627599
40
1098.6356515627599
40
1098.8119983674201
40
1098.8119983674201
40
1098.8119983674201
40
1098.8119983674201
10
140.59082396413999
20
33.061714777962607
30
5.5511151231257827e-16
10
124.124065286857
20
33.061769019108802
30
5.5511151231257827e-16
10
107.65749668247102
20
33.0616822788175
30
5.5511151231257827e-16
10
88.4293719665243
20
33.061789223561398
30
5.5511151231257827e-16
10
86.190777631451994
20
35.300313485790603
30
5.5511151231257827e-16
10
86.190765406631797
20
40.965602076111509
30
5.5511151231257827e-16
10
86.190802689485295
20
43.869291672881403
30
5.5511151231257827e-16
10
86.190811356521607
20
46.773022137465297
30
5.5511151231257827e-16
0
SPLINE
5
107
100
AcDbEntity
8
0
100
AcDbSpline
70
0
71
3
72
12
73
8
74
0
42
0.000000001
43
0.0000000001
44
0.0000000001
40
1100.46795284426
40
1100.46795284426
40
1100.46795284426
40
1100.46795284426
40
1101.46795284426
40
1101.46795284426
40
1107.4312845229199
40
1107.4312845229199
40
1108.43133599714
40
1108.43133599714
40
1108.43133599714
40
1108.43133599714
10
86.190811356521607
20
46.773022137465297
30
5.5511151231257827e-16
10
86.190755722849616
20
49.534586389200797
30
5.5511151231257827e-16
10
88.429400574345493
20
51.7730519948324
30
5.5511151231257827e-16
10
107.65750892647301
20
51.773055401533703
30
5.5511151231257827e-16
10
124.124093894678
20
51.773031790379804
30
5.5511151231257827e-16
10
143.352208372804
20
51.773069938896597
30
5.5511151231257827e-16
10
145.59080270787601
20
49.534545676667307
30
5.5511151231257827e-16
10
145.590766368098
20
46.77306928655851
30
5.5511151231257827e-16
0
LWPOLYLINE
5
108
100
AcDbEntity
8
0
100
AcDbPolyline
90
20
70
1
43
0.0
10
175.59063966878401
20
27.417451642068599
10
175.59070754803699
20
24.417453943831102
10
155.59084885352101
20
24.417444891083004
10
155.59077484827
20
27.417407847504904
10
76.190799685097005
20
27.417451759287101
10
76.190763338903096
20
24.417472439045103
10
56.1907820409455
20
24.417377538845798
10
56.190836765134698
20
27.417461084534402
10
46.051695224701405
20
27.417411931874
10
46.051701030662301
20
57.417411487539908
10
56.190766961465997
20
57.417438150381805
10
56.190803307659898
20
60.417417470623903
10
76.190766227622206
20
60.417408145376506
10
76.190799365059405
20
57.417416573137501
10
155.59078065423103
20
57.417407403170905
10
155.590759768791
20
60.417468459041004
10
175.590728814751
20
60.417493875609203
10
175.590639348747
20
57.41741645591901
10
185.86891440972704
20
57.417470374139505
10
185.868896351769
20
27.417401334842403
0
SPLINE
5
109
100
AcDbEntity
8
0
100
AcDbSpline
70
0
71
3
72
10
73
6
74
0
42
0.000000001
43
0.0000000001
44
0.0000000001
40
1087.46795284426
40
1087.46795284426
40
1087.46795284426
40
1087.46795284426
40
1088.46795284426
40
1088.46795284426
40
1089.4679492662899
40
1089.4679492662899
40
1089.4679492662899
40
1089.4679492662899
10
69.2908166515994
20
42.417426409955503
30
0
10
69.290793833944306
20
40.705317546654697
30
0
10
67.902920635515798
20
39.317452166494199
30
0
10
64.478696782915804
20
39.317463059988697
30
0
10
63.090831402755299
20
40.705336258417198
30
0
10
63.09081947859471
20
42.4174512477165
30
0
0
SPLINE
5
110
100
AcDbEntity
8
0
100
AcDbSpline
70
0
71
3
72
10
73
6
74
0
42
0.000000001
43
0.0000000001
44
0.0000000001
40
1089.46795284426
40
1089.46795284426
40
1089.46795284426
40
1089.46795284426
40
1090.46795284426
40
1090.46795284426
40
1091.46801372353
40
1091.46801372353
40
1091.46801372353
40
1091.46801372353
10
63.09081947859471
20
42.4174512477165
30
0
10
63.090842296249797
20
44.129560111017298
30
0
10
64.478721620676794
20
45.517460232993301
30
0
10
67.9028351218317
20
45.517432975678702
30
0
10
69.290839469254394
20
44.129535273256302
30
0
10
69.2908166515994
20
42.417426409955503
30
0
0
SPLINE
5
111
100
AcDbEntity
8
0
100
AcDbSpline
70
0
71
3
72
10
73
6
74
0
42
0.000000001
43
0.0000000001
44
0.0000000001
40
1091.46795284426
40
1091.46795284426
40
1091.46795284426
40
1091.46795284426
40
1092.46795284426
40
1092.46795284426
40
1093.4679564222399
40
1093.4679564222399
40
1093.4679564222399
40
1093.4679564222399
10
168.69077311273
20
42.417477398372597
30
0
10
168.69075029507499
20
40.705368535071798
30
0
10
167.30285871865104
20
39.317398929464701
30
0
10
163.87863486605099
20
39.3174098229591
30
0
10
162.49077561188901
20
40.705317763203198
30
0
10
162.49076368772901
20
42.417432752502499
30
0
0
SPLINE
5
112
100
AcDbEntity
8
0
100
AcDbSpline
70
0
71
3
72
10
73
6
74
0
42
0.000000001
43
0.0000000001
44
0.0000000001
40
1093.46795284426
40
1093.46795284426
40
1093.46795284426
40
1093.46795284426
40
1094.46795284426
40
1094.46795284426
40
1095.46796715864
40
1095.46796715864
40
1095.46796715864
40
1095.46796715864
10
162.49076368772901
20
42.417432752502499
30
0
10
162.49078650538399
20
44.129541615803298
30
0
10
163.87865970381199
20
45.517406995963803
30
0
10
167.302901934408
20
45.517500327915997
30
0
10
168.69077755239002
20
44.129482036226698
30
0
10
168.69077311273
20
42.417477398372597
30
0
0
SPLINE
5
113
100
AcDbEntity
8
0
100
AcDbSpline
70
0
71
3
72
10
73
6
74
0
42
0.000000001
43
0.0000000001
44
0.0000000001
40
1095.46795284426
40
1095.46795284426
40
1095.46795284426
40
1095.46795284426
40
1096.46795284426
40
1096.46795284426
40
1097.41888907926
40
1097.41888907926
40
1097.41888907926
40
1097.41888907926
10
145.590766368098
20
46.77306928655851
30
0
10
145.59076382706104
20
43.869373563790106
30
0
10
145.59081239165801
20
40.965561363578104
30
0
10
145.590842994474
20
35.300376998703896
30
0
10
143.35219612880303
20
33.061696816180401
30
0
10
140.59082396413999
20
33.061714777962607
30
0
0
SPLINE
5
114
100
AcDbEntity
8
0
100
AcDbSpline
70
0
71
3
72
12
73
8
74
0
42
0.000000001
43
0.0000000001
44
0.0000000001
40
1097.46795284426
40
1097.46795284426
40
1097.46795284426
40
1097.46795284426
40
1098.46795284426
40
1098.46795284426
40
1098.6356515627599
40
1098.6356515627599
40
1098.8119983674201
40
1098.8119983674201
40
1098.8119983674201
40
1098.8119983674201
10
140.59082396413999
20
33.061714777962607
30
0
10
124.124065286857
20
33.061769019108802
30
0
10
107.65749668247102
20
33.0616822788175
30
0
10
88.4293719665243
20
33.061789223561398
30
0
10
86.190777631451994
20
35.300313485790603
30
0
10
86.190765406631797
20
40.965602076111509
30
0
10
86.190802689485295
20
43.869291672881403
30
0
10
86.190811356521607
20
46.773022137465297
30
0
0
SPLINE
5
115
100
AcDbEntity
8
0
100
AcDbSpline
70
0
71
3
72
12
73
8
74
0
42
0.000000001
43
0.0000000001
44
0.0000000001
40
1100.46795284426
40
1100.46795284426
40
1100.46795284426
40
1100.46795284426
40
1101.46795284426
40
1101.46795284426
40
1107.4312845229199
40
1107.4312845229199
40
1108.43133599714
40
1108.43133599714
40
1108.43133599714
40
1108.43133599714
10
86.190811356521607
20
46.773022137465297
30
0
10
86.190755722849616
20
49.534586389200797
30
0
10
88.429400574345493
20
51.7730519948324
30
0
10
107.65750892647301
20
51.773055401533703
30
0
10
124.124093894678
20
51.773031790379804
30
0
10
143.352208372804
20
51.773069938896597
30
0
10
145.59080270787601
20
49.534545676667307
30
0
10
145.590766368098
20
46.77306928655851
30
0
0
ENDSEC
0
SECTION
2
OBJECTS
0
DICTIONARY
5
C
100
AcDbDictionary
3
ACAD_GROUP
350
D
3
ACAD_MLINESTYLE
350
17
0
DICTIONARY
5
D
100
AcDbDictionary
0
DICTIONARY
5
1A
330
C
100
AcDbDictionary
0
DICTIONARY
5
17
100
AcDbDictionary
0
ENDSEC
0
EOF
