0
SECTION
2
HEADER
9
$INSUNITS
70
4
9
$ACADVER
1
AC1014
9
$HANDSEED
5
FFFF
0
ENDSEC
0
SECTION
2
TABLES
0
TABLE
2
VPORT
5
8
100
AcDbSymbolTable
0
ENDTAB
0
TABLE
2
LTYPE
5
5
100
AcDbSymbolTable
0
LTYPE
5
14
100
AcDbSymbolTableRecord
100
AcDbLinetypeTableRecord
2
BYBLOCK
70
0
0
LTYPE
5
15
100
AcDbSymbolTableRecord
100
AcDbLinetypeTableRecord
2
BYLAYER
70
0
0
ENDTAB
0
TABLE
2
LAYER
5
2
100
AcDbSymbolTable
70
2
0
LAYER
5
50
100
AcDbSymbolTableRecord
100
AcDbLayerTableRecord
2
0
70
0
6
CONTINUOUS
0
ENDTAB
0
TABLE
2
STYLE
5
3
100
AcDbSymbolTable
70
1
0
STYLE
5
11
100
AcDbSymbolTableRecord
100
AcDbTextStyleTableRecord
2
STANDARD
70
0
0
ENDTAB
0
TABLE
2
VIEW
5
6
100
AcDbSymbolTable
70
0
0
ENDTAB
0
TABLE
2
UCS
5
7
100
AcDbSymbolTable
70
0
0
ENDTAB
0
TABLE
2
APPID
5
9
100
AcDbSymbolTable
70
2
0
APPID
5
12
100
AcDbSymbolTableRecord
100
AcDbRegAppTableRecord
2
ACAD
70
0
0
ENDTAB
0
TABLE
2
DIMSTYLE
5
A
100
AcDbSymbolTable
70
1
0
ENDTAB
0
TABLE
2
BLOCK_RECORD
5
1
100
AcDbSymbolTable
70
1
0
BLOCK_RECORD
5
1F
100
AcDbSymbolTableRecord
100
AcDbBlockTableRecord
2
*MODEL_SPACE
0
BLOCK_RECORD
5
1B
100
AcDbSymbolTableRecord
100
AcDbBlockTableRecord
2
*PAPER_SPACE
0
ENDTAB
0
ENDSEC
0
SECTION
2
BLOCKS
0
BLOCK
5
20
100
AcDbEntity
100
AcDbBlockBegin
2
*MODEL_SPACE
0
ENDBLK
5
21
100
AcDbEntity
100
AcDbBlockEnd
0
BLOCK
5
1C
100
AcDbEntity
100
AcDbBlockBegin
2
*PAPER_SPACE
0
ENDBLK
5
1D
100
AcDbEntity
100
AcDbBlockEnd
0
ENDSEC
0
SECTION
2
ENTITIES
0
SPLINE
5
100
100
AcDbEntity
8
0
100
AcDbSpline
70
0
71
3
72
8
73
4
74
0
42
0.000000001
43
0.0000000001
44
0.0000000001
40
-8
40
-8
40
-8
40
-8
40
-7
40
-7
40
-7
40
-7
10
64.417563682802495
20
-53.099693005708552
30
7.4107386893729199e-14
10
64.417563682802495
20
-50.890598561264106
30
6.5225602696727947e-14
10
62.6266520161359
20
-49.099722172375294
30
4.3021142204224816e-14
10
60.417451738357997
20
-49.099722172375294
30
4.3021142204224816e-14
0
LINE
5
101
100
AcDbEntity
8
0
100
AcDbLine
10
60.417451738358004
20
-49.099722172375294
30
4.3021142204224816e-14
11
24.417467293913599
21
-49.099722172375294
31
4.3021142204224816e-14
0
SPLINE
5
102
100
AcDbEntity
8
0
100
AcDbSpline
70
0
71
3
72
8
73
4
74
0
42
0.000000001
43
0.0000000001
44
0.0000000001
40
-6
40
-6
40
-6
40
-6
40
-5
40
-5
40
-5
40
-5
10
24.417467293913599
20
-49.099722172375294
30
4.3021142204224816e-14
10
22.208372849469203
20
-49.099722172375294
30
4.3021142204224816e-14
10
20.417567016135798
20
-50.890598561264106
30
6.5225602696727947e-14
10
20.417567016135798
20
-53.099693005708552
30
7.4107386893729199e-14
0
LINE
5
103
100
AcDbEntity
8
0
100
AcDbLine
10
20.417567016135798
20
-53.099693005708552
30
7.4107386893729199e-14
11
20.417567016135798
21
-136.51960772793106
31
2.0289325775024736e-13
0
SPLINE
5
104
100
AcDbEntity
8
0
100
AcDbSpline
70
0
71
3
72
8
73
4
74
0
42
0.000000001
43
0.0000000001
44
0.0000000001
40
-4
40
-4
40
-4
40
-4
40
-3
40
-3
40
-3
40
-3
10
20.417567016135798
20
-136.51960772793106
30
1.9845236565174673e-13
10
20.417567016135798
20
-138.72870217237539
30
1.8957058145474548e-13
10
22.208372849469203
20
-140.51961383904174
30
1.0075273948473296e-13
10
24.417467293913599
20
-140.51961383904174
30
1.0075273948473296e-13
0
LINE
5
105
100
AcDbEntity
8
0
100
AcDbLine
10
24.417467293913599
20
-140.51961383904174
30
1.0075273948473296e-13
11
60.417451738357997
21
-140.51961383904174
31
1.0075273948473296e-13
0
SPLINE
5
106
100
AcDbEntity
8
0
100
AcDbSpline
70
0
71
3
72
8
73
4
74
0
42
0.000000001
43
0.0000000001
44
0.0000000001
40
-2
40
-2
40
-2
40
-2
40
-1
40
-1
40
-1
40
-1
10
60.417451738357997
20
-140.51961383904174
30
1.0075273948473296e-13
10
62.6266520161359
20
-140.51961383904174
30
1.0075273948473296e-13
10
64.417563682802495
20
-138.72870217237539
30
1.8957058145474548e-13
10
64.417563682802495
20
-136.51960772793106
30
1.9845236565174673e-13
0
LINE
5
107
100
AcDbEntity
8
0
100
AcDbLine
10
64.417563682802495
20
-136.51960772793106
30
1.9845236565174673e-13
11
64.417563682802495
21
-53.099693005708552
31
7.4107386893729199e-14
0
LINE
5
108
100
AcDbEntity
8
0
100
AcDbLine
10
51.773161460580297
20
-60.109810783486353
30
1.2073675392798577e-13
11
51.773161460580297
21
-109.5097063390415
31
7.4107386893729199e-14
0
SPLINE
5
109
100
AcDbEntity
8
0
100
AcDbSpline
70
0
71
3
72
8
73
4
74
0
42
0.000000001
43
0.0000000001
44
0.0000000001
40
1
40
1
40
1
40
1
40
2
40
2
40
2
40
2
10
51.773161460580297
20
-109.5097063390415
30
7.4107386893729199e-14
10
51.773161460580297
20
-112.27110967237493
30
6.0784710598227321e-14
10
49.534574793913606
20
-114.5095905057088
30
1.8735013540549517e-13
10
46.773171460580301
20
-114.5095905057088
30
1.8735013540549517e-13
0
LINE
5
110
100
AcDbEntity
8
0
100
AcDbLine
10
46.773171460580301
20
-114.5095905057088
30
1.8735013540549517e-13
11
38.061853405024699
21
-114.5095905057088
31
1.8735013540549517e-13
0
SPLINE
5
111
100
AcDbEntity
8
0
100
AcDbSpline
70
0
71
3
72
8
73
4
74
0
42
0.000000001
43
0.0000000001
44
0.0000000001
40
3
40
3
40
3
40
3
40
4
40
4
40
4
40
4
10
38.061853405024699
20
-114.5095905057088
30
1.8735013540549517e-13
10
35.300379516135798
20
-114.5095905057088
30
1.8735013540549517e-13
10
33.061863405024702
20
-112.27110967237493
30
6.0784710598227321e-14
10
33.061863405024702
20
-109.5097063390415
30
7.4107386893729199e-14
0
LINE
5
112
100
AcDbEntity
8
0
100
AcDbLine
10
33.061863405024702
20
-109.50970633904151
30
7.4107386893729199e-14
11
33.061863405024702
21
-60.109810783486353
31
1.2073675392798577e-13
0
SPLINE
5
113
100
AcDbEntity
8
0
100
AcDbSpline
70
0
71
3
72
8
73
4
74
0
42
0.000000001
43
0.0000000001
44
0.0000000001
40
5
40
5
40
5
40
5
40
6
40
6
40
6
40
6
10
33.061863405024702
20
-60.109810783486353
30
1.2073675392798577e-13
10
33.061863405024702
20
-57.348301616819725
30
7.9658502016854982e-14
10
35.300379516135798
20
-55.10971495015302
30
6.0784710598227321e-14
10
38.061853405024699
20
-55.10971495015302
30
6.0784710598227321e-14
0
LINE
5
114
100
AcDbEntity
8
0
100
AcDbLine
10
38.061853405024699
20
-55.10971495015302
30
6.0784710598227321e-14
11
46.773171460580301
21
-55.10971495015302
31
6.0784710598227321e-14
0
SPLINE
5
115
100
AcDbEntity
8
0
100
AcDbSpline
70
0
71
3
72
8
73
4
74
0
42
0.000000001
43
0.0000000001
44
0.0000000001
40
7
40
7
40
7
40
7
40
8
40
8
40
8
40
8
10
46.773171460580301
20
-55.10971495015302
30
6.0784710598227321e-14
10
49.534574793913606
20
-55.10971495015302
30
6.0784710598227321e-14
10
51.773161460580297
20
-57.348301616819725
30
7.9658502016854982e-14
10
51.773161460580297
20
-60.109810783486353
30
1.2073675392798577e-13
0
LWPOLYLINE
5
116
100
AcDbEntity
8
0
100
AcDbPolyline
90
4
70
1
43
0.0
10
57.417464793913602
20
-110.51970911681968
10
57.417464793913602
20
-130.51970439459708
10
60.417451738357997
20
-130.51970439459708
10
60.417451738357997
20
-110.51970911681968
0
LWPOLYLINE
5
117
100
AcDbEntity
8
0
100
AcDbPolyline
90
4
70
1
43
0.0
10
57.417464793913602
20
-79.099697450153045
10
60.417451738357997
20
-79.099697450153045
10
60.417451738357997
20
-59.099702172375274
10
57.417464793913602
20
-59.099702172375274
0
LWPOLYLINE
5
118
100
AcDbEntity
8
0
100
AcDbPolyline
90
4
70
1
43
0.0
10
27.417454238358104
20
-79.099697450153045
10
27.417454238358104
20
-59.099702172375274
10
24.417467293913599
20
-59.099702172375274
10
24.417467293913599
20
-79.099697450153045
0
LWPOLYLINE
5
119
100
AcDbEntity
8
0
100
AcDbPolyline
90
4
70
1
43
0.0
10
27.417454238358104
20
-110.51970911681968
10
24.417467293913599
20
-110.51970911681968
10
24.417467293913599
20
-130.51970439459708
10
27.417454238358104
20
-130.51970439459708
0
SPLINE
5
120
100
AcDbEntity
8
0
100
AcDbSpline
70
0
71
3
72
8
73
4
74
0
42
0.000000001
43
0.0000000001
44
0.0000000001
40
-8
40
-8
40
-8
40
-8
40
-7
40
-7
40
-7
40
-7
10
64.417563682802495
20
-53.099693005708552
30
-2.7755575615628914e-16
10
64.417563682802495
20
-50.890598561264106
30
8.3266726846886741e-16
10
62.6266520161359
20
-49.099722172375273
30
-1.3877787807814457e-15
10
60.417451738357997
20
-49.099722172375273
30
-1.3877787807814457e-15
0
LINE
5
121
100
AcDbEntity
8
0
100
AcDbLine
10
60.417451738358004
20
-49.099722172375273
30
-1.3877787807814457e-15
11
24.417467293913599
21
-49.099722172375273
31
-1.3877787807814457e-15
0
SPLINE
5
122
100
AcDbEntity
8
0
100
AcDbSpline
70
0
71
3
72
8
73
4
74
0
42
0.000000001
43
0.0000000001
44
0.0000000001
40
-6
40
-6
40
-6
40
-6
40
-5
40
-5
40
-5
40
-5
10
24.417467293913599
20
-49.099722172375273
30
-1.3877787807814457e-15
10
22.208372849469203
20
-49.099722172375273
30
-1.3877787807814457e-15
10
20.417567016135798
20
-50.890598561264106
30
8.3266726846886741e-16
10
20.417567016135798
20
-53.099693005708552
30
-2.7755575615628914e-16
0
LINE
5
123
100
AcDbEntity
8
0
100
AcDbLine
10
20.417567016135798
20
-53.099693005708552
30
-2.7755575615628904e-16
11
20.417567016135798
21
-136.51960772793103
31
-2.7755575615628914e-16
0
SPLINE
5
124
100
AcDbEntity
8
0
100
AcDbSpline
70
0
71
3
72
8
73
4
74
0
42
0.000000001
43
0.0000000001
44
0.0000000001
40
-4
40
-4
40
-4
40
-4
40
-3
40
-3
40
-3
40
-3
10
20.417567016135798
20
-136.519607727931
30
3.0531133177191805e-15
10
20.417567016135798
20
-138.72870217237536
30
3.0531133177191805e-15
10
22.208372849469203
20
-140.51961383904174
30
-5.8286708792820718e-15
10
24.417467293913599
20
-140.51961383904174
30
-5.8286708792820718e-15
0
LINE
5
125
100
AcDbEntity
8
0
100
AcDbLine
10
24.417467293913599
20
-140.51961383904171
30
-5.8286708792820718e-15
11
60.417451738357997
21
-140.51961383904174
31
-5.8286708792820718e-15
0
SPLINE
5
126
100
AcDbEntity
8
0
100
AcDbSpline
70
0
71
3
72
8
73
4
74
0
42
0.000000001
43
0.0000000001
44
0.0000000001
40
-2
40
-2
40
-2
40
-2
40
-1
40
-1
40
-1
40
-1
10
60.417451738357997
20
-140.51961383904174
30
-5.8286708792820718e-15
10
62.6266520161359
20
-140.51961383904174
30
-5.8286708792820718e-15
10
64.417563682802495
20
-138.72870217237536
30
3.0531133177191805e-15
10
64.417563682802495
20
-136.519607727931
30
3.0531133177191805e-15
0
LINE
5
127
100
AcDbEntity
8
0
100
AcDbLine
10
64.417563682802495
20
-136.519607727931
30
3.0531133177191801e-15
11
64.417563682802495
21
-53.099693005708552
31
-2.7755575615628914e-16
0
LINE
5
128
100
AcDbEntity
8
0
100
AcDbLine
10
51.773161460580297
20
-60.109810783486346
30
3.0531133177191805e-15
11
51.773161460580297
21
-109.50970633904149
31
3.0531133177191805e-15
0
SPLINE
5
129
100
AcDbEntity
8
0
100
AcDbSpline
70
0
71
3
72
8
73
4
74
0
42
0.000000001
43
0.0000000001
44
0.0000000001
40
1
40
1
40
1
40
1
40
2
40
2
40
2
40
2
10
51.773161460580297
20
-109.50970633904146
30
5.2735593669694936e-15
10
51.773161460580297
20
-112.27110967237491
30
8.3266726846886741e-16
10
49.534574793913606
20
-114.50959050570879
30
3.0531133177191805e-15
10
46.773171460580301
20
-114.50959050570879
30
3.0531133177191805e-15
0
LINE
5
130
100
AcDbEntity
8
0
100
AcDbLine
10
46.773171460580301
20
-114.50959050570879
30
3.0531133177191805e-15
11
38.061853405024699
21
-114.50959050570879
31
3.0531133177191805e-15
0
SPLINE
5
131
100
AcDbEntity
8
0
100
AcDbSpline
70
0
71
3
72
8
73
4
74
0
42
0.000000001
43
0.0000000001
44
0.0000000001
40
3
40
3
40
3
40
3
40
4
40
4
40
4
40
4
10
38.061853405024699
20
-114.50959050570879
30
3.0531133177191805e-15
10
35.300379516135798
20
-114.50959050570879
30
3.0531133177191805e-15
10
33.061863405024702
20
-112.27110967237491
30
8.3266726846886741e-16
10
33.061863405024702
20
-109.50970633904146
30
5.2735593669694936e-15
0
LINE
5
132
100
AcDbEntity
8
0
100
AcDbLine
10
33.061863405024702
20
-109.50970633904143
30
5.2735593669694936e-15
11
33.061863405024702
21
-60.109810783486317
31
5.2735593669694936e-15
0
SPLINE
5
133
100
AcDbEntity
8
0
100
AcDbSpline
70
0
71
3
72
8
73
4
74
0
42
0.000000001
43
0.0000000001
44
0.0000000001
40
5
40
5
40
5
40
5
40
6
40
6
40
6
40
6
10
33.061863405024702
20
-60.109810783486346
30
3.0531133177191805e-15
10
33.061863405024702
20
-57.348301616819704
30
-2.7755575615628914e-16
10
35.300379516135798
20
-55.109714950153013
30
-2.7755575615628914e-16
10
38.061853405024699
20
-55.109714950153013
30
-2.7755575615628914e-16
0
LINE
5
134
100
AcDbEntity
8
0
100
AcDbLine
10
38.061853405024699
20
-55.109714950153013
30
-2.7755575615628914e-16
11
46.773171460580301
21
-55.109714950153013
31
-2.7755575615628914e-16
0
SPLINE
5
135
100
AcDbEntity
8
0
100
AcDbSpline
70
0
71
3
72
8
73
4
74
0
42
0.000000001
43
0.0000000001
44
0.0000000001
40
7
40
7
40
7
40
7
40
8
40
8
40
8
40
8
10
46.773171460580301
20
-55.109714950153013
30
-2.7755575615628914e-16
10
49.534574793913606
20
-55.109714950153013
30
-2.7755575615628914e-16
10
51.773161460580297
20
-57.348301616819704
30
-2.7755575615628914e-16
10
51.773161460580297
20
-60.109810783486346
30
3.0531133177191805e-15
0
LWPOLYLINE
5
136
100
AcDbEntity
8
0
100
AcDbPolyline
90
4
70
1
43
0.0
10
57.417464793913602
20
-110.51970911681966
10
57.417464793913602
20
-130.51970439459703
10
60.417451738357997
20
-130.51970439459706
10
60.417451738357997
20
-110.51970911681966
0
LWPOLYLINE
5
137
100
AcDbEntity
8
0
100
AcDbPolyline
90
4
70
1
43
0.0
10
57.417464793913602
20
-79.099697450153016
10
60.417451738357997
20
-79.099697450153016
10
60.417451738357997
20
-59.099702172375245
10
57.417464793913602
20
-59.099702172375252
0
LWPOLYLINE
5
138
100
AcDbEntity
8
0
100
AcDbPolyline
90
4
70
1
43
0.0
10
27.417454238358104
20
-79.099697450153016
10
27.417454238358104
20
-59.099702172375245
10
24.417467293913599
20
-59.099702172375252
10
24.417467293913599
20
-79.099697450153016
0
LWPOLYLINE
5
139
100
AcDbEntity
8
0
100
AcDbPolyline
90
4
70
1
43
0.0
10
27.417454238358104
20
-110.51970911681966
10
24.417467293913599
20
-110.51970911681966
10
24.417467293913599
20
-130.51970439459703
10
27.417454238358104
20
-130.51970439459706
0
ENDSEC
0
SECTION
2
OBJECTS
0
DICTIONARY
5
C
100
AcDbDictionary
3
ACAD_GROUP
350
D
3
ACAD_MLINESTYLE
350
17
0
DICTIONARY
5
D
100
AcDbDictionary
0
DICTIONARY
5
1A
330
C
100
AcDbDictionary
0
DICTIONARY
5
17
100
AcDbDictionary
0
ENDSEC
0
EOF
