0
SECTION
2
HEADER
9
$INSUNITS
70
4
9
$ACADVER
1
AC1014
9
$HANDSEED
5
FFFF
0
ENDSEC
0
SECTION
2
TABLES
0
TABLE
2
VPORT
5
8
100
AcDbSymbolTable
0
ENDTAB
0
TABLE
2
LTYPE
5
5
100
AcDbSymbolTable
0
LTYPE
5
14
100
AcDbSymbolTableRecord
100
AcDbLinetypeTableRecord
2
BYBLOCK
70
0
0
LTYPE
5
15
100
AcDbSymbolTableRecord
100
AcDbLinetypeTableRecord
2
BYLAYER
70
0
0
ENDTAB
0
TABLE
2
LAYER
5
2
100
AcDbSymbolTable
70
2
0
LAYER
5
50
100
AcDbSymbolTableRecord
100
AcDbLayerTableRecord
2
0
70
0
6
CONTINUOUS
0
ENDTAB
0
TABLE
2
STYLE
5
3
100
AcDbSymbolTable
70
1
0
STYLE
5
11
100
AcDbSymbolTableRecord
100
AcDbTextStyleTableRecord
2
STANDARD
70
0
0
ENDTAB
0
TABLE
2
VIEW
5
6
100
AcDbSymbolTable
70
0
0
ENDTAB
0
TABLE
2
UCS
5
7
100
AcDbSymbolTable
70
0
0
ENDTAB
0
TABLE
2
APPID
5
9
100
AcDbSymbolTable
70
2
0
APPID
5
12
100
AcDbSymbolTableRecord
100
AcDbRegAppTableRecord
2
ACAD
70
0
0
ENDTAB
0
TABLE
2
DIMSTYLE
5
A
100
AcDbSymbolTable
70
1
0
ENDTAB
0
TABLE
2
BLOCK_RECORD
5
1
100
AcDbSymbolTable
70
1
0
BLOCK_RECORD
5
1F
100
AcDbSymbolTableRecord
100
AcDbBlockTableRecord
2
*MODEL_SPACE
0
BLOCK_RECORD
5
1B
100
AcDbSymbolTableRecord
100
AcDbBlockTableRecord
2
*PAPER_SPACE
0
ENDTAB
0
ENDSEC
0
SECTION
2
BLOCKS
0
BLOCK
5
20
100
AcDbEntity
100
AcDbBlockBegin
2
*MODEL_SPACE
0
ENDBLK
5
21
100
AcDbEntity
100
AcDbBlockEnd
0
BLOCK
5
1C
100
AcDbEntity
100
AcDbBlockBegin
2
*PAPER_SPACE
0
ENDBLK
5
1D
100
AcDbEntity
100
AcDbBlockEnd
0
ENDSEC
0
SECTION
2
ENTITIES
0
LWPOLYLINE
5
100
100
AcDbEntity
8
0
100
AcDbPolyline
90
20
70
1
43
0.0
10
27.417490620687396
20
-110.51971692544696
10
27.417564964262695
20
-79.099765813990388
10
24.417677617580296
20
-79.099708253656544
10
24.417604367628698
20
-59.099763711501581
10
27.417583687937896
20
-59.099733410394251
10
27.417567423703396
20
-48.96071447334964
10
57.417526111563802
20
-48.960740502769639
10
57.417548501726792
20
-59.099794181642153
10
60.417417470623903
20
-59.099747516492315
10
60.417386495091705
20
-79.099710436432787
10
57.417511400266207
20
-79.099722359754608
10
57.417559659959906
20
-110.51975931890991
10
60.417434754785404
20
-110.51974739558788
10
60.417416031110207
20
-130.51977979918374
10
57.417528684427808
20
-130.51972223885036
10
57.417523538699804
20
-140.79798504784333
10
27.417558724910901
20
-140.79792427659547
10
27.417547506596396
20
-130.51977181901472
10
24.417584550329696
20
-130.51969176870944
10
24.417621651790299
20
-110.51976359059719
0
SPLINE
5
101
100
AcDbEntity
8
0
100
AcDbSpline
70
0
71
3
72
8
73
4
74
0
42
0.000000001
43
0.0000000001
44
0.0000000001
40
-89.064428347685507
40
-89.064428347685507
40
-89.064428347685507
40
-89.064428347685507
40
-88.064428347685507
40
-88.064428347685507
40
-88.064428347685507
40
-88.064428347685507
10
51.773196414084701
20
-94.099649306340524
30
1.5987211554602254e-13
10
51.773148980242993
20
-94.572937875720967
30
1.0658141036401503e-13
10
51.773154666014598
20
-95.046324544656756
30
1.6875389974302379e-13
10
51.773160351786309
20
-95.519711213592473
30
1.1546319456101628e-13
0
SPLINE
5
102
100
AcDbEntity
8
0
100
AcDbSpline
70
0
71
3
72
12
73
8
74
0
42
0.000000001
43
0.0000000001
44
0.0000000001
40
-88.064428347685507
40
-88.064428347685507
40
-88.064428347685507
40
-88.064428347685507
40
-87.064428347685507
40
-87.064428347685507
40
-86.012885397918595
40
-86.012885397918595
40
-85.012898382225401
40
-85.012898382225401
40
-85.012898382225401
40
-85.012898382225401
10
51.773160351786309
20
-95.519711213592473
30
1.1546319456101628e-13
10
51.773086901587305
20
-98.281205981554393
30
5.3290705182007514e-14
10
49.534714884550404
20
-100.51979320282874
30
4.4408920985006262e-14
10
43.869461036093597
20
-100.51976343628155
30
6.2172489379008766e-14
10
40.965730571497986
20
-100.51976625217702
30
3.5527136788005009e-14
10
35.3004767230412
20
-100.51973648562993
30
6.2172489379008766e-14
10
33.061922229851803
20
-98.281143765768661
30
1.0658141036401503e-13
10
33.061897580495597
20
-95.519702117420081
30
9.7699626167013776e-14
0
SPLINE
5
103
100
AcDbEntity
8
0
100
AcDbSpline
70
0
71
3
72
10
73
6
74
0
42
0.000000001
43
0.0000000001
44
0.0000000001
40
-85.064428347685507
40
-85.064428347685507
40
-85.064428347685507
40
-85.064428347685507
40
-84.064428347685507
40
-84.064428347685507
40
-78.229657153124805
40
-78.229657153124805
40
-78.229657153124805
40
-78.229657153124805
10
33.061897580495597
20
-95.519702117420053
30
8.8817841970012523e-14
10
33.061891894723999
20
-95.046315448484378
30
6.2172489379008766e-14
10
33.061886208952302
20
-94.57292877954859
30
8.8817841970012523e-15
10
33.061972351165096
20
-91.338151568134563
30
7.9936057773011271e-14
10
35.300466971471096
20
-89.099650194558592
30
2.6645352591003757e-14
10
38.061943361647593
20
-89.099619419273864
30
5.3290705182007514e-14
0
SPLINE
5
104
100
AcDbEntity
8
0
100
AcDbSpline
70
0
71
3
72
10
73
6
74
0
42
0.000000001
43
0.0000000001
44
0.0000000001
40
-83.064428347685507
40
-83.064428347685507
40
-83.064428347685507
40
-83.064428347685507
40
-82.064428347685507
40
-82.064428347685507
40
-81.113458226472503
40
-81.113458226472503
40
-81.113458226472503
40
-81.113458226472503
10
38.061943361647593
20
-89.09961941927385
30
1.5099033134902129e-13
10
40.965755561755884
20
-89.099673835177128
30
9.7699626167013776e-14
10
43.869445158594985
20
-89.099642403382319
30
1.4210854715202004e-13
10
49.53473987480811
20
-89.099700785828759
30
9.7699626167013776e-14
10
51.773153386942994
20
-91.338103432508163
30
1.865174681370263e-13
10
51.773196414084701
20
-94.099649306340439
30
1.4210854715202004e-13
0
SPLINE
5
105
100
AcDbEntity
8
0
100
AcDbSpline
70
0
71
3
72
10
73
6
74
0
42
0.000000001
43
0.0000000001
44
0.0000000001
40
-77.064428347685507
40
-77.064428347685507
40
-77.064428347685507
40
-77.064428347685507
40
-76.064428347685507
40
-76.064428347685507
40
-75.064397661249302
40
-75.064397661249302
40
-75.064397661249302
40
-75.064397661249302
10
42.41761482172349
20
-124.61970754122771
30
1.865174681370263e-13
10
40.153200056422293
20
-124.61971344405589
30
1.865174681370263e-13
10
38.317656367854497
20
-122.78405561171209
30
1.0658141036401503e-13
10
38.317669065911502
20
-118.25536504842134
30
1.865174681370263e-13
10
40.15320429498621
20
-116.41973551215523
30
1.5987211554602254e-13
10
42.417584318459504
20
-116.41973573525561
30
2.3980817331903381e-13
0
SPLINE
5
106
100
AcDbEntity
8
0
100
AcDbSpline
70
0
71
3
72
10
73
6
74
0
42
0.000000001
43
0.0000000001
44
0.0000000001
40
-75.064428347685507
40
-75.064428347685507
40
-75.064428347685507
40
-75.064428347685507
40
-74.064428347685507
40
-74.064428347685507
40
-73.064474375232507
40
-73.064474375232507
40
-73.064474375232507
40
-73.064474375232507
10
42.417584318459504
20
-116.41973573525561
30
1.3322676295501878e-13
10
44.68189485827709
20
-116.41974821021233
30
7.9936057773011271e-14
10
46.517640871883792
20
-118.25533454515718
30
3.5527136788005009e-14
10
46.517634299755187
20
-122.78405985027607
30
1.1546319456101628e-13
10
44.681925361541097
20
-124.6197200161844
30
8.8817841970012523e-15
10
42.41761482172349
20
-124.61970754122771
30
7.9936057773011271e-14
0
CIRCLE
5
107
100
AcDbEntity
8
0
100
AcDbCircle
10
42.417673312744185
20
-69.099709507342851
30
1.4210854715202004e-13
40
5.2500000000000204
210
-8.3077913407324327e-16
220
-1.1379786002407853e-15
230
1
0
LWPOLYLINE
5
108
100
AcDbEntity
8
0
100
AcDbPolyline
90
20
70
1
43
0.0
10
27.417490620687389
20
-110.51971692544694
10
27.417564964262692
20
-79.099765813990388
10
24.417677617580292
20
-79.099708253656544
10
24.417604367628694
20
-59.099763711501573
10
27.417583687937892
20
-59.099733410394251
10
27.417567423703389
20
-48.96071447334964
10
57.417526111563795
20
-48.960740502769646
10
57.417548501726792
20
-59.099794181642153
10
60.417417470623896
20
-59.099747516492315
10
60.417386495091698
20
-79.099710436432787
10
57.417511400266193
20
-79.099722359754622
10
57.417559659959892
20
-110.51975931890992
10
60.417434754785397
20
-110.51974739558787
10
60.4174160311102
20
-130.51977979918374
10
57.417528684427801
20
-130.51972223885039
10
57.417523538699797
20
-140.79798504784333
10
27.417558724910897
20
-140.7979242765955
10
27.417547506596392
20
-130.51977181901472
10
24.417584550329693
20
-130.51969176870944
10
24.417621651790292
20
-110.51976359059719
0
SPLINE
5
109
100
AcDbEntity
8
0
100
AcDbSpline
70
0
71
3
72
8
73
4
74
0
42
0.000000001
43
0.0000000001
44
0.0000000001
40
-89.064428347685507
40
-89.064428347685507
40
-89.064428347685507
40
-89.064428347685507
40
-88.064428347685507
40
-88.064428347685507
40
-88.064428347685507
40
-88.064428347685507
10
51.773196414084694
20
-94.099649306340538
30
8.8817841970012523e-15
10
51.773148980242993
20
-94.572937875720967
30
8.8817841970012523e-15
10
51.773154666014591
20
-95.04632454465677
30
0
10
51.773160351786302
20
-95.519711213592473
30
8.8817841970012523e-15
0
SPLINE
5
110
100
AcDbEntity
8
0
100
AcDbSpline
70
0
71
3
72
12
73
8
74
0
42
0.000000001
43
0.0000000001
44
0.0000000001
40
-88.064428347685507
40
-88.064428347685507
40
-88.064428347685507
40
-88.064428347685507
40
-87.064428347685507
40
-87.064428347685507
40
-86.012885397918595
40
-86.012885397918595
40
-85.012898382225401
40
-85.012898382225401
40
-85.012898382225401
40
-85.012898382225401
10
51.773160351786302
20
-95.519711213592473
30
8.8817841970012523e-15
10
51.773086901587291
20
-98.281205981554393
30
0
10
49.534714884550397
20
-100.51979320282874
30
0
10
43.869461036093597
20
-100.51976343628155
30
0
10
40.965730571497986
20
-100.51976625217702
30
8.8817841970012523e-15
10
35.300476723041193
20
-100.51973648562992
30
-8.8817841970012523e-15
10
33.061922229851795
20
-98.281143765768661
30
8.8817841970012523e-15
10
33.061897580495589
20
-95.519702117420081
30
0
0
SPLINE
5
111
100
AcDbEntity
8
0
100
AcDbSpline
70
0
71
3
72
10
73
6
74
0
42
0.000000001
43
0.0000000001
44
0.0000000001
40
-85.064428347685507
40
-85.064428347685507
40
-85.064428347685507
40
-85.064428347685507
40
-84.064428347685507
40
-84.064428347685507
40
-78.229657153124805
40
-78.229657153124805
40
-78.229657153124805
40
-78.229657153124805
10
33.061897580495589
20
-95.519702117420053
30
0
10
33.061891894723992
20
-95.046315448484364
30
8.8817841970012523e-15
10
33.061886208952295
20
-94.57292877954859
30
0
10
33.061972351165096
20
-91.338151568134549
30
0
10
35.300466971471096
20
-89.099650194558592
30
0
10
38.061943361647593
20
-89.099619419273864
30
0
0
SPLINE
5
112
100
AcDbEntity
8
0
100
AcDbSpline
70
0
71
3
72
10
73
6
74
0
42
0.000000001
43
0.0000000001
44
0.0000000001
40
-83.064428347685507
40
-83.064428347685507
40
-83.064428347685507
40
-83.064428347685507
40
-82.064428347685507
40
-82.064428347685507
40
-81.113458226472503
40
-81.113458226472503
40
-81.113458226472503
40
-81.113458226472503
10
38.061943361647593
20
-89.09961941927385
30
0
10
40.965755561755884
20
-89.099673835177128
30
0
10
43.869445158594985
20
-89.099642403382319
30
-8.8817841970012523e-15
10
49.534739874808096
20
-89.099700785828759
30
8.8817841970012523e-15
10
51.773153386942994
20
-91.338103432508163
30
0
10
51.773196414084694
20
-94.099649306340439
30
8.8817841970012523e-15
0
SPLINE
5
113
100
AcDbEntity
8
0
100
AcDbSpline
70
0
71
3
72
10
73
6
74
0
42
0.000000001
43
0.0000000001
44
0.0000000001
40
-77.064428347685507
40
-77.064428347685507
40
-77.064428347685507
40
-77.064428347685507
40
-76.064428347685507
40
-76.064428347685507
40
-75.064397661249302
40
-75.064397661249302
40
-75.064397661249302
40
-75.064397661249302
10
42.41761482172349
20
-124.61970754122771
30
0
10
40.153200056422293
20
-124.61971344405589
30
0
10
38.317656367854489
20
-122.78405561171209
30
0
10
38.317669065911495
20
-118.25536504842134
30
0
10
40.153204294986196
20
-116.41973551215523
30
8.8817841970012523e-15
10
42.41758431845949
20
-116.41973573525564
30
0
0
SPLINE
5
114
100
AcDbEntity
8
0
100
AcDbSpline
70
0
71
3
72
10
73
6
74
0
42
0.000000001
43
0.0000000001
44
0.0000000001
40
-75.064428347685507
40
-75.064428347685507
40
-75.064428347685507
40
-75.064428347685507
40
-74.064428347685507
40
-74.064428347685507
40
-73.064474375232507
40
-73.064474375232507
40
-73.064474375232507
40
-73.064474375232507
10
42.41758431845949
20
-116.41973573525564
30
0
10
44.68189485827709
20
-116.41974821021233
30
0
10
46.517640871883792
20
-118.25533454515718
30
8.8817841970012523e-15
10
46.517634299755187
20
-122.78405985027609
30
8.8817841970012523e-15
10
44.68192536154109
20
-124.6197200161844
30
0
10
42.41761482172349
20
-124.61970754122771
30
0
0
CIRCLE
5
115
100
AcDbEntity
8
0
100
AcDbCircle
10
42.417673312744185
20
-69.099709507342851
30
0
40
5.2500000000000213
210
-0
220
0
230
1
0
ENDSEC
0
SECTION
2
OBJECTS
0
DICTIONARY
5
C
100
AcDbDictionary
3
ACAD_GROUP
350
D
3
ACAD_MLINESTYLE
350
17
0
DICTIONARY
5
D
100
AcDbDictionary
0
DICTIONARY
5
1A
330
C
100
AcDbDictionary
0
DICTIONARY
5
17
100
AcDbDictionary
0
ENDSEC
0
EOF
