  0
SECTION
  2
HEADER
  9
$ACADVER
  1
AC1009
  9
$INSBASE
 10
0.0
 20
0.0
 30
0.0
  9
$EXTMIN
 10
0.0
 20
0.0
 30
0.0
  9
$EXTMAX
 10
0.0
 20
0.0
 30
0.0
  0
ENDSEC
  0
SECTION
  2
TABLES
  0
TABLE
  2
VPORT
 70
0
  0
ENDTAB
  0
TABLE
  2
LTYPE
 70
1
  0
LTYPE
  2
CONTINUOUS
 70
0
  3
Solid line
 72
65
 73
0
 40
0.0
  0
ENDTAB
  0
TABLE
  2
LAYER
 70
1
  0
LAYER
  2
0
 70
64
 62
7
  6
continuous
  0
ENDTAB
  0
TABLE
  2
STYLE
 70
1
  0
STYLE
  2
STANDARD
 70
0
 40
0
 41
1.0
 50
0.0
 71
0
 42
1
 3
ARIAL.TTF
 4

  0
ENDTAB
  0
TABLE
  2
VIEW
 70
0
  0
ENDTAB
  0
ENDSEC
  0
SECTION
  2
BLOCKS
  0
BLOCK
  8
0
  2
P4_4X001001_SOLID
 70
0
 10
0.0
 20
0.0
 30
0.0
  3
P4_4X001001_SOLID
  0
LINE
  8
0
 62
0
 10
77.41699981689453
 20
17.08100128173828
 30
0.0
 11
72.70410919189453
 21
43.80766677856445
 31
0.0
  0
LINE
  8
0
 62
0
 10
90.11799621582031
 20
2.6350021362304688
 30
0.0
 11
89.10199737548828
 21
2.50799560546875
 31
0.0
  0
LINE
  8
0
 62
0
 10
59.5359992980957
 20
-22.942001342773438
 30
0.0
 11
60.77399826049805
 21
-23.618003845214844
 31
0.0
  0
LINE
  8
0
 62
0
 10
34.60199737548828
 20
44.55099868774414
 30
0.0
 11
35.5260009765625
 21
40.07899856567383
 31
0.0
  0
LINE
  8
0
 62
0
 10
35.5260009765625
 20
40.07899856567383
 30
0.0
 11
35.733909606933594
 21
39.17879867553711
 31
0.0
  0
LINE
  8
0
 62
0
 10
35.733909606933594
 20
39.17879867553711
 30
0.0
 11
35.7139892578125
 21
39.17528533935547
 31
0.0
  0
LINE
  8
0
 62
0
 10
35.7139892578125
 20
39.17528533935547
 30
0.0
 11
41.16215133666992
 21
12.808815002441406
 31
0.0
  0
LINE
  8
0
 62
0
 10
41.16215133666992
 20
12.808815002441406
 30
0.0
 11
43.57088088989258
 21
1.1517257690429688
 31
0.0
  0
LINE
  8
0
 62
0
 10
43.57088088989258
 20
1.1517257690429688
 30
0.0
 11
44.61000061035156
 21
-2.2450027465820312
 31
0.0
  0
LINE
  8
0
 62
0
 10
44.61000061035156
 20
-2.2450027465820312
 30
0.0
 11
46.053001403808594
 21
-6.593002319335938
 31
0.0
  0
LINE
  8
0
 62
0
 10
46.053001403808594
 20
-6.5930023193359375
 30
0.0
 11
46.57899856567383
 21
-8.006004333496094
 31
0.0
  0
LINE
  8
0
 62
0
 10
46.57899856567383
 20
-8.006004333496094
 30
0.0
 11
47.16699981689453
 21
-9.376998901367188
 31
0.0
  0
LINE
  8
0
 62
0
 10
47.16699981689453
 20
-9.376998901367188
 30
0.0
 11
47.81700134277344
 21
-10.706001281738281
 31
0.0
  0
LINE
  8
0
 62
0
 10
47.81700134277344
 20
-10.706001281738281
 30
0.0
 11
48.52399826049805
 21
-11.991004943847656
 31
0.0
  0
LINE
  8
0
 62
0
 10
48.52399826049805
 20
-11.991004943847656
 30
0.0
 11
49.28799819946289
 21
-13.232002258300781
 31
0.0
  0
LINE
  8
0
 62
0
 10
49.28799819946289
 20
-13.232002258300781
 30
0.0
 11
50.10599899291992
 21
-14.427001953125
 31
0.0
  0
LINE
  8
0
 62
0
 10
50.10599899291992
 20
-14.427001953125
 30
0.0
 11
50.974998474121094
 21
-15.576004028320312
 31
0.0
  0
LINE
  8
0
 62
0
 10
50.974998474121094
 20
-15.576004028320312
 30
0.0
 11
51.89500045776367
 21
-16.676002502441406
 31
0.0
  0
LINE
  8
0
 62
0
 10
51.89500045776367
 20
-16.676002502441406
 30
0.0
 11
52.861000061035156
 21
-17.728004455566406
 31
0.0
  0
LINE
  8
0
 62
0
 10
52.861000061035156
 20
-17.728004455566406
 30
0.0
 11
53.87300109863281
 21
-18.72900390625
 31
0.0
  0
LINE
  8
0
 62
0
 10
53.87300109863281
 20
-18.72900390625
 30
0.0
 11
54.928001403808594
 21
-19.679000854492188
 31
0.0
  0
LINE
  8
0
 62
0
 10
54.928001403808594
 20
-19.679000854492188
 30
0.0
 11
56.02399826049805
 21
-20.576004028320312
 31
0.0
  0
LINE
  8
0
 62
0
 10
56.02399826049805
 20
-20.576004028320312
 30
0.0
 11
57.159000396728516
 21
-21.419998168945312
 31
0.0
  0
LINE
  8
0
 62
0
 10
57.159000396728516
 20
-21.419998168945312
 30
0.0
 11
58.33100128173828
 21
-22.208999633789062
 31
0.0
  0
LINE
  8
0
 62
0
 10
58.33100128173828
 20
-22.208999633789062
 30
0.0
 11
59.5359992980957
 21
-22.942001342773438
 31
0.0
  0
LINE
  8
0
 62
0
 10
60.77399826049805
 20
-23.618003845214844
 30
0.0
 11
62.04199981689453
 21
-24.23699951171875
 31
0.0
  0
LINE
  8
0
 62
0
 10
62.04199981689453
 20
-24.23699951171875
 30
0.0
 11
63.3380012512207
 21
-24.794998168945312
 31
0.0
  0
LINE
  8
0
 62
0
 10
63.3380012512207
 20
-24.794998168945312
 30
0.0
 11
64.65899658203125
 21
-25.29399871826172
 31
0.0
  0
LINE
  8
0
 62
0
 10
64.65899658203125
 20
-25.29399871826172
 30
0.0
 11
66.00399780273438
 21
-25.731002807617188
 31
0.0
  0
LINE
  8
0
 62
0
 10
66.00399780273438
 20
-25.731002807617188
 30
0.0
 11
67.3699951171875
 21
-26.106002807617188
 31
0.0
  0
LINE
  8
0
 62
0
 10
68.7550048828125
 20
-26.41699981689453
 30
0.0
 11
67.3699951171875
 21
-26.106002807617188
 31
0.0
  0
LINE
  8
0
 62
0
 10
70.15699768066406
 20
-26.663002014160156
 30
0.0
 11
68.7550048828125
 21
-26.41699981689453
 31
0.0
  0
LINE
  8
0
 62
0
 10
71.5739974975586
 20
-26.842002868652344
 30
0.0
 11
70.15699768066406
 21
-26.663002014160156
 31
0.0
  0
LINE
  8
0
 62
0
 10
73.00399780273438
 20
-26.955001831054688
 30
0.0
 11
71.5739974975586
 21
-26.842002868652344
 31
0.0
  0
LINE
  8
0
 62
0
 10
74.44300079345703
 20
-27.0
 30
0.0
 11
73.00399780273438
 21
-26.955001831054688
 31
0.0
  0
LINE
  8
0
 62
0
 10
75.89099884033203
 20
-26.974998474121094
 30
0.0
 11
74.44300079345703
 21
-27.0
 31
0.0
  0
LINE
  8
0
 62
0
 10
77.34500122070312
 20
-26.8800048828125
 30
0.0
 11
75.89099884033203
 21
-26.974998474121094
 31
0.0
  0
LINE
  8
0
 62
0
 10
78.8030014038086
 20
-26.712997436523438
 30
0.0
 11
77.34500122070312
 21
-26.8800048828125
 31
0.0
  0
LINE
  8
0
 62
0
 10
80.26300048828125
 20
-26.4739990234375
 30
0.0
 11
78.8030014038086
 21
-26.712997436523438
 31
0.0
  0
LINE
  8
0
 62
0
 10
81.72200012207031
 20
-26.160003662109375
 30
0.0
 11
80.26300048828125
 21
-26.4739990234375
 31
0.0
  0
LINE
  8
0
 62
0
 10
83.1780014038086
 20
-25.772003173828125
 30
0.0
 11
81.72200012207031
 21
-26.160003662109375
 31
0.0
  0
LINE
  8
0
 62
0
 10
83.1780014038086
 20
-25.772003173828125
 30
0.0
 11
176.87200927734375
 21
1.6969985961914134
 31
0.0
  0
LINE
  8
0
 62
0
 10
176.87200927734375
 20
1.6969985961914062
 30
0.0
 11
177.7659912109375
 21
2.0049972534179688
 31
0.0
  0
LINE
  8
0
 62
0
 10
177.7659912109375
 20
2.0049972534179688
 30
0.0
 11
178.61399841308594
 21
2.3889999389648438
 31
0.0
  0
LINE
  8
0
 62
0
 10
178.61399841308594
 20
2.3889999389648438
 30
0.0
 11
179.41299438476562
 21
2.845001220703125
 31
0.0
  0
LINE
  8
0
 62
0
 10
179.41299438476562
 20
2.845001220703125
 30
0.0
 11
180.15798950195312
 21
3.3669967651367188
 31
0.0
  0
LINE
  8
0
 62
0
 10
180.15798950195312
 20
3.3669967651367188
 30
0.0
 11
180.84799194335938
 21
3.9499969482421875
 31
0.0
  0
LINE
  8
0
 62
0
 10
180.84799194335938
 20
3.9499969482421875
 30
0.0
 11
181.48001098632812
 21
4.588996887207031
 31
0.0
  0
LINE
  8
0
 62
0
 10
181.48001098632812
 20
4.588996887207031
 30
0.0
 11
182.0500030517578
 21
5.280998229980469
 31
0.0
  0
LINE
  8
0
 62
0
 10
182.0500030517578
 20
5.280998229980469
 30
0.0
 11
182.55499267578125
 21
6.0189971923828125
 31
0.0
  0
LINE
  8
0
 62
0
 10
182.55499267578125
 20
6.0189971923828125
 30
0.0
 11
182.99200439453125
 21
6.7989959716796875
 31
0.0
  0
LINE
  8
0
 62
0
 10
182.99200439453125
 20
6.7989959716796875
 30
0.0
 11
183.3590087890625
 21
7.615997314453125
 31
0.0
  0
LINE
  8
0
 62
0
 10
183.3590087890625
 20
7.615997314453125
 30
0.0
 11
183.65200805664062
 21
8.465995788574219
 31
0.0
  0
LINE
  8
0
 62
0
 10
183.65200805664062
 20
8.465995788574219
 30
0.0
 11
183.8679962158203
 21
9.343002319335938
 31
0.0
  0
LINE
  8
0
 62
0
 10
183.8679962158203
 20
9.343002319335938
 30
0.0
 11
184.0050048828125
 21
10.242996215820312
 31
0.0
  0
LINE
  8
0
 62
0
 10
184.0050048828125
 20
10.242996215820312
 30
0.0
 11
184.05899047851562
 21
11.159996032714844
 31
0.0
  0
LINE
  8
0
 62
0
 10
184.05899047851562
 20
11.159996032714844
 30
0.0
 11
184.02700805664062
 21
12.090995788574219
 31
0.0
  0
LINE
  8
0
 62
0
 10
184.02700805664062
 20
12.090995788574219
 30
0.0
 11
183.90699768066406
 21
13.028999328613281
 31
0.0
  0
LINE
  8
0
 62
0
 10
183.3769989013672
 20
16.032997131347656
 30
0.0
 11
183.90699768066406
 21
13.028999328613281
 31
0.0
  0
LINE
  8
0
 62
0
 10
183.3769989013672
 20
16.032997131347656
 30
0.0
 11
183.21200561523438
 21
16.61699676513672
 31
0.0
  0
LINE
  8
0
 62
0
 10
183.21200561523438
 20
16.61699676513672
 30
0.0
 11
182.94200134277344
 21
17.141998291015625
 31
0.0
  0
LINE
  8
0
 62
0
 10
182.94200134277344
 20
17.141998291015625
 30
0.0
 11
182.58099365234375
 21
17.595001220703125
 31
0.0
  0
LINE
  8
0
 62
0
 10
182.58099365234375
 20
17.595001220703125
 30
0.0
 11
182.14300537109375
 21
17.96900177001953
 31
0.0
  0
LINE
  8
0
 62
0
 10
182.14300537109375
 20
17.96900177001953
 30
0.0
 11
181.64300537109375
 21
18.25299835205078
 31
0.0
  0
LINE
  8
0
 62
0
 10
181.64300537109375
 20
18.25299835205078
 30
0.0
 11
181.09300231933594
 21
18.436996459960938
 31
0.0
  0
LINE
  8
0
 62
0
 10
181.09300231933594
 20
18.436996459960938
 30
0.0
 11
180.50799560546875
 21
18.511001586914062
 31
0.0
  0
LINE
  8
0
 62
0
 10
180.50799560546875
 20
18.511001586914062
 30
0.0
 11
179.90200805664062
 21
18.46599578857422
 31
0.0
  0
LINE
  8
0
 62
0
 10
179.90200805664062
 20
18.46599578857422
 30
0.0
 11
90.11799621582031
 21
2.6350021362304688
 31
0.0
  0
LINE
  8
0
 62
0
 10
89.10199737548828
 20
2.50799560546875
 30
0.0
 11
88.0979995727539
 21
2.4850006103515625
 31
0.0
  0
LINE
  8
0
 62
0
 10
88.0979995727539
 20
2.4850006103515625
 30
0.0
 11
87.11199951171875
 21
2.5609970092773438
 31
0.0
  0
LINE
  8
0
 62
0
 10
87.11199951171875
 20
2.5609970092773438
 30
0.0
 11
86.14800262451172
 21
2.733001708984375
 31
0.0
  0
LINE
  8
0
 62
0
 10
86.14800262451172
 20
2.733001708984375
 30
0.0
 11
85.21400451660156
 21
2.996002197265625
 31
0.0
  0
LINE
  8
0
 62
0
 10
85.21400451660156
 20
2.996002197265625
 30
0.0
 11
84.31500244140625
 21
3.3460006713867188
 31
0.0
  0
LINE
  8
0
 62
0
 10
84.31500244140625
 20
3.3460006713867188
 30
0.0
 11
83.45700073242188
 21
3.7789993286132812
 31
0.0
  0
LINE
  8
0
 62
0
 10
83.45700073242188
 20
3.7789993286132812
 30
0.0
 11
82.64599609375
 21
4.2910003662109375
 31
0.0
  0
LINE
  8
0
 62
0
 10
82.64599609375
 20
4.2910003662109375
 30
0.0
 11
81.88700103759766
 21
4.877998352050781
 31
0.0
  0
LINE
  8
0
 62
0
 10
81.88700103759766
 20
4.877998352050781
 30
0.0
 11
81.18600463867188
 21
5.5370025634765625
 31
0.0
  0
LINE
  8
0
 62
0
 10
81.18600463867188
 20
5.5370025634765625
 30
0.0
 11
80.55000305175781
 21
6.262001037597656
 31
0.0
  0
LINE
  8
0
 62
0
 10
80.55000305175781
 20
6.262001037597656
 30
0.0
 11
79.98300170898438
 21
7.0489959716796875
 31
0.0
  0
LINE
  8
0
 62
0
 10
79.98300170898438
 20
7.0489959716796875
 30
0.0
 11
79.49299621582031
 21
7.89599609375
 31
0.0
  0
LINE
  8
0
 62
0
 10
79.49299621582031
 20
7.89599609375
 30
0.0
 11
79.08399963378906
 21
8.7969970703125
 31
0.0
  0
LINE
  8
0
 62
0
 10
79.08399963378906
 20
8.7969970703125
 30
0.0
 11
78.76200103759766
 21
9.748001098632812
 31
0.0
  0
LINE
  8
0
 62
0
 10
78.76200103759766
 20
9.748001098632812
 30
0.0
 11
78.53399658203125
 21
10.746002197265625
 31
0.0
  0
LINE
  8
0
 62
0
 10
78.53399658203125
 20
10.746002197265625
 30
0.0
 11
77.41694641113281
 21
17.08099365234375
 31
0.0
  0
LINE
  8
0
 62
0
 10
77.41694641113281
 20
17.08099365234375
 30
0.0
 11
77.41699981689453
 21
17.08100128173828
 31
0.0
  0
LINE
  8
0
 62
0
 10
72.70410919189453
 20
43.80766677856445
 30
0.0
 11
72.70423126220703
 21
43.80768966674805
 31
0.0
  0
LINE
  8
0
 62
0
 10
70.71199798583984
 20
55.10599899291992
 30
0.0
 11
72.70423126220703
 21
43.80768966674805
 31
0.0
  0
LINE
  8
0
 62
0
 10
70.58499908447266
 20
56.12199783325195
 30
0.0
 11
70.71199798583984
 21
55.10599899291992
 31
0.0
  0
LINE
  8
0
 62
0
 10
70.56199645996094
 20
57.125999450683594
 30
0.0
 11
70.58499908447266
 21
56.12199783325195
 31
0.0
  0
LINE
  8
0
 62
0
 10
70.63800048828125
 20
58.112998962402344
 30
0.0
 11
70.56199645996094
 21
57.125999450683594
 31
0.0
  0
LINE
  8
0
 62
0
 10
70.80999755859375
 20
59.07600021362305
 30
0.0
 11
70.63800048828125
 21
58.112998962402344
 31
0.0
  0
LINE
  8
0
 62
0
 10
71.072998046875
 20
60.0099983215332
 30
0.0
 11
70.80999755859375
 21
59.07600021362305
 31
0.0
  0
LINE
  8
0
 62
0
 10
71.42300415039062
 20
60.909000396728516
 30
0.0
 11
71.072998046875
 21
60.0099983215332
 31
0.0
  0
LINE
  8
0
 62
0
 10
71.85600280761719
 20
61.766998291015625
 30
0.0
 11
71.42300415039062
 21
60.909000396728516
 31
0.0
  0
LINE
  8
0
 62
0
 10
71.85600280761719
 20
61.766998291015625
 30
0.0
 11
72.36799621582031
 21
62.57899856567383
 31
0.0
  0
LINE
  8
0
 62
0
 10
72.36799621582031
 20
62.57899856567383
 30
0.0
 11
72.95600128173828
 21
63.33799743652344
 31
0.0
  0
LINE
  8
0
 62
0
 10
72.95600128173828
 20
63.33799743652344
 30
0.0
 11
73.61399841308594
 21
64.03799438476562
 31
0.0
  0
LINE
  8
0
 62
0
 10
73.61399841308594
 20
64.03799438476562
 30
0.0
 11
74.33900451660156
 21
64.67500305175781
 31
0.0
  0
LINE
  8
0
 62
0
 10
74.33900451660156
 20
64.67500305175781
 30
0.0
 11
75.1259994506836
 21
65.24099731445312
 31
0.0
  0
LINE
  8
0
 62
0
 10
75.9729995727539
 20
65.73199462890625
 30
0.0
 11
75.1259994506836
 21
65.24099731445312
 31
0.0
  0
LINE
  8
0
 62
0
 10
75.9729995727539
 20
65.73199462890625
 30
0.0
 11
76.8740005493164
 21
66.14099884033203
 31
0.0
  0
LINE
  8
0
 62
0
 10
77.82499694824219
 20
66.46299743652344
 30
0.0
 11
76.8740005493164
 21
66.14099884033203
 31
0.0
  0
LINE
  8
0
 62
0
 10
77.82499694824219
 20
66.46299743652344
 30
0.0
 11
78.822998046875
 21
66.69099426269531
 31
0.0
  0
LINE
  8
0
 62
0
 10
78.822998046875
 20
66.69099426269531
 30
0.0
 11
88.6709976196289
 21
68.427001953125
 31
0.0
  0
LINE
  8
0
 62
0
 10
89.19200134277344
 20
65.4729995727539
 30
0.0
 11
88.6709976196289
 21
68.427001953125
 31
0.0
  0
LINE
  8
0
 62
0
 10
108.88800048828125
 20
68.94599914550781
 30
0.0
 11
89.19200134277344
 21
65.4729995727539
 31
0.0
  0
LINE
  8
0
 62
0
 10
108.36699676513672
 20
71.9000015258789
 30
0.0
 11
108.88800048828125
 21
68.94599914550781
 31
0.0
  0
LINE
  8
0
 62
0
 10
139.30999755859375
 20
77.35600280761719
 30
0.0
 11
108.36699676513672
 21
71.9000015258789
 31
0.0
  0
LINE
  8
0
 62
0
 10
139.83099365234375
 20
74.4020004272461
 30
0.0
 11
139.30999755859375
 21
77.35600280761719
 31
0.0
  0
LINE
  8
0
 62
0
 10
159.52700805664062
 20
77.875
 30
0.0
 11
139.83099365234375
 21
74.4020004272461
 31
0.0
  0
LINE
  8
0
 62
0
 10
159.00599670410156
 20
80.82899475097656
 30
0.0
 11
159.52700805664062
 21
77.875
 31
0.0
  0
LINE
  8
0
 62
0
 10
168.85400390625
 20
82.56600189208984
 30
0.0
 11
159.00599670410156
 21
80.82899475097656
 31
0.0
  0
LINE
  8
0
 62
0
 10
168.85400390625
 20
82.56600189208984
 30
0.0
 11
169.40499877929688
 21
82.71800231933594
 31
0.0
  0
LINE
  8
0
 62
0
 10
169.90499877929688
 20
82.96399688720703
 30
0.0
 11
169.40499877929688
 21
82.71800231933594
 31
0.0
  0
LINE
  8
0
 62
0
 10
170.343994140625
 20
83.29399871826172
 30
0.0
 11
169.90499877929688
 21
82.96399688720703
 31
0.0
  0
LINE
  8
0
 62
0
 10
170.71299743652344
 20
83.69400024414062
 30
0.0
 11
170.343994140625
 21
83.29399871826172
 31
0.0
  0
LINE
  8
0
 62
0
 10
171.00399780273438
 20
84.15499877929688
 30
0.0
 11
170.71299743652344
 21
83.69400024414062
 31
0.0
  0
LINE
  8
0
 62
0
 10
171.00399780273438
 20
84.15499877929688
 30
0.0
 11
171.20899963378906
 21
84.66400146484375
 31
0.0
  0
LINE
  8
0
 62
0
 10
171.20899963378906
 20
84.66400146484375
 30
0.0
 11
171.31700134277344
 21
85.20999908447266
 31
0.0
  0
LINE
  8
0
 62
0
 10
171.31700134277344
 20
85.20999908447266
 30
0.0
 11
171.32199096679688
 21
85.78199768066406
 31
0.0
  0
LINE
  8
0
 62
0
 10
171.32199096679688
 20
85.78199768066406
 30
0.0
 11
170.93899536132812
 21
90.15299987792969
 31
0.0
  0
LINE
  8
0
 62
0
 10
170.93899536132812
 20
90.15299987792969
 30
0.0
 11
170.83599853515625
 21
90.71499633789062
 31
0.0
  0
LINE
  8
0
 62
0
 10
170.83599853515625
 20
90.71499633789062
 30
0.0
 11
170.63400268554688
 21
91.23400115966797
 31
0.0
  0
LINE
  8
0
 62
0
 10
170.63400268554688
 20
91.23400115966797
 30
0.0
 11
170.343994140625
 21
91.69999694824219
 31
0.0
  0
LINE
  8
0
 62
0
 10
170.343994140625
 20
91.69999694824219
 30
0.0
 11
169.97698974609375
 21
92.10299682617188
 31
0.0
  0
LINE
  8
0
 62
0
 10
169.97698974609375
 20
92.10299682617188
 30
0.0
 11
169.54400634765625
 21
92.43299865722656
 31
0.0
  0
LINE
  8
0
 62
0
 10
169.54400634765625
 20
92.43299865722656
 30
0.0
 11
169.05499267578125
 21
92.68099975585938
 31
0.0
  0
LINE
  8
0
 62
0
 10
169.05499267578125
 20
92.68099975585938
 30
0.0
 11
168.51998901367188
 21
92.83699798583984
 31
0.0
  0
LINE
  8
0
 62
0
 10
168.51998901367188
 20
92.83699798583984
 30
0.0
 11
167.95098876953125
 21
92.89099884033203
 31
0.0
  0
LINE
  8
0
 62
0
 10
34.15899658203125
 20
92.89099884033203
 30
0.0
 11
167.95098876953125
 21
92.89099884033203
 31
0.0
  0
LINE
  8
0
 62
0
 10
33.57099914550781
 20
92.83399963378906
 30
0.0
 11
34.15899658203125
 21
92.89099884033203
 31
0.0
  0
LINE
  8
0
 62
0
 10
33.57099914550781
 20
92.83399963378906
 30
0.0
 11
33.02100372314453
 21
92.66799926757812
 31
0.0
  0
LINE
  8
0
 62
0
 10
33.02100372314453
 20
92.66799926757812
 30
0.0
 11
32.52100372314453
 21
92.40499877929688
 31
0.0
  0
LINE
  8
0
 62
0
 10
32.52100372314453
 20
92.40499877929688
 30
0.0
 11
32.08100128173828
 21
92.05599975585938
 31
0.0
  0
LINE
  8
0
 62
0
 10
32.08100128173828
 20
92.05599975585938
 30
0.0
 11
31.71399688720703
 21
91.63099670410156
 31
0.0
  0
LINE
  8
0
 62
0
 10
31.71399688720703
 20
91.63099670410156
 30
0.0
 11
31.430999755859375
 21
91.14199829101562
 31
0.0
  0
LINE
  8
0
 62
0
 10
31.430999755859375
 20
91.14199829101562
 30
0.0
 11
31.242996215820312
 21
90.5989990234375
 31
0.0
  0
LINE
  8
0
 62
0
 10
31.242996215820312
 20
90.5989990234375
 30
0.0
 11
31.16100311279297
 21
90.01399993896484
 31
0.0
  0
LINE
  8
0
 62
0
 10
31.16100311279297
 20
90.01399993896484
 30
0.0
 11
31.027000427246094
 21
85.43399810791016
 31
0.0
  0
LINE
  8
0
 62
0
 10
31.027000427246094
 20
85.43399810791016
 30
0.0
 11
31.0
 21
80.85699462890625
 31
0.0
  0
LINE
  8
0
 62
0
 10
31.0
 20
80.85699462890625
 30
0.0
 11
31.080001831054688
 21
76.28399658203125
 31
0.0
  0
LINE
  8
0
 62
0
 10
31.080001831054688
 20
76.28399658203125
 30
0.0
 11
31.26599884033203
 21
71.71800231933594
 31
0.0
  0
LINE
  8
0
 62
0
 10
31.26599884033203
 20
71.71800231933594
 30
0.0
 11
31.557998657226562
 21
67.15899658203125
 31
0.0
  0
LINE
  8
0
 62
0
 10
31.95600128173828
 20
62.61000061035156
 30
0.0
 11
31.557998657226562
 21
67.15899658203125
 31
0.0
  0
LINE
  8
0
 62
0
 10
32.459999084472656
 20
58.072998046875
 30
0.0
 11
31.95600128173828
 21
62.61000061035156
 31
0.0
  0
LINE
  8
0
 62
0
 10
32.459999084472656
 20
58.072998046875
 30
0.0
 11
33.069000244140625
 21
53.54999923706055
 31
0.0
  0
LINE
  8
0
 62
0
 10
33.069000244140625
 20
53.54999923706055
 30
0.0
 11
33.782997131347656
 21
49.04100036621094
 31
0.0
  0
LINE
  8
0
 62
0
 10
33.782997131347656
 20
49.04100036621094
 30
0.0
 11
34.60199737548828
 21
44.55099868774414
 31
0.0
  0
LINE
  8
0
 62
0
 10
121.2249984741211
 20
-1.0190048217773438
 30
0.0
 11
101.52899932861328
 21
-4.49200439453125
 31
0.0
  0
LINE
  8
0
 62
0
 10
101.52899932861328
 20
-4.49200439453125
 30
0.0
 11
101.00800323486328
 21
-1.5380020141601562
 31
0.0
  0
LINE
  8
0
 62
0
 10
101.00800323486328
 20
-1.5380020141601562
 30
0.0
 11
120.7040023803711
 21
1.93499755859375
 31
0.0
  0
LINE
  8
0
 62
0
 10
120.7040023803711
 20
1.93499755859375
 30
0.0
 11
121.2249984741211
 21
-1.0190048217773438
 31
0.0
  0
LINE
  8
0
 62
0
 10
152.16799926757812
 20
4.4369964599609375
 30
0.0
 11
151.64700317382812
 21
7.390998840332031
 31
0.0
  0
LINE
  8
0
 62
0
 10
151.64700317382812
 20
7.390998840332031
 30
0.0
 11
171.34300231933594
 21
10.863998413085938
 31
0.0
  0
LINE
  8
0
 62
0
 10
171.34300231933594
 20
10.863998413085938
 30
0.0
 11
171.86399841308594
 21
7.909996032714844
 31
0.0
  0
LINE
  8
0
 62
0
 10
171.86399841308594
 20
7.909996032714844
 30
0.0
 11
152.16799926757812
 21
4.4369964599609375
 31
0.0
  0
LINE
  8
0
 62
0
 10
41.29999923706055
 20
90.01399993896484
 30
0.0
 11
41.29999923706055
 21
87.01399993896484
 31
0.0
  0
LINE
  8
0
 62
0
 10
61.29999923706055
 20
90.01399993896484
 30
0.0
 11
41.29999923706055
 21
90.01399993896484
 31
0.0
  0
LINE
  8
0
 62
0
 10
61.29999923706055
 20
87.01399993896484
 30
0.0
 11
61.29999923706055
 21
90.01399993896484
 31
0.0
  0
LINE
  8
0
 62
0
 10
41.29999923706055
 20
87.01399993896484
 30
0.0
 11
61.29999923706055
 21
87.01399993896484
 31
0.0
  0
LINE
  8
0
 62
0
 10
140.6999969482422
 20
87.01399993896484
 30
0.0
 11
160.6999969482422
 21
87.01399993896484
 31
0.0
  0
LINE
  8
0
 62
0
 10
140.6999969482422
 20
90.01399993896484
 30
0.0
 11
140.6999969482422
 21
87.01399993896484
 31
0.0
  0
LINE
  8
0
 62
0
 10
160.6999969482422
 20
90.01399993896484
 30
0.0
 11
140.6999969482422
 21
90.01399993896484
 31
0.0
  0
LINE
  8
0
 62
0
 10
160.6999969482422
 20
87.01399993896484
 30
0.0
 11
160.6999969482422
 21
90.01399993896484
 31
0.0
  0
LINE
  8
0
 62
0
 10
71.04100036621094
 20
-6.734001159667969
 30
0.0
 11
70.4990005493164
 21
-7.01300048828125
 31
0.0
  0
LINE
  8
0
 62
0
 10
71.64500427246094
 20
-6.564002990722656
 30
0.0
 11
71.04100036621094
 21
-6.734001159667969
 31
0.0
  0
LINE
  8
0
 62
0
 10
72.27200317382812
 20
-6.516998291015625
 30
0.0
 11
71.64500427246094
 21
-6.564002990722656
 31
0.0
  0
LINE
  8
0
 62
0
 10
72.8759994506836
 20
-6.594001770019531
 30
0.0
 11
72.27200317382812
 21
-6.516998291015625
 31
0.0
  0
LINE
  8
0
 62
0
 10
72.8759994506836
 20
-6.594001770019531
 30
0.0
 11
73.44400024414062
 21
-6.784004211425781
 31
0.0
  0
LINE
  8
0
 62
0
 10
73.96199798583984
 20
-7.077003479003906
 30
0.0
 11
73.44400024414062
 21
-6.784004211425781
 31
0.0
  0
LINE
  8
0
 62
0
 10
74.41400146484375
 20
-7.4640045166015625
 30
0.0
 11
73.96199798583984
 21
-7.077003479003906
 31
0.0
  0
LINE
  8
0
 62
0
 10
74.78700256347656
 20
-7.9329986572265625
 30
0.0
 11
74.41400146484375
 21
-7.4640045166015625
 31
0.0
  0
LINE
  8
0
 62
0
 10
75.06600189208984
 20
-8.4739990234375
 30
0.0
 11
74.78700256347656
 21
-7.9329986572265625
 31
0.0
  0
LINE
  8
0
 62
0
 10
75.23699951171875
 20
-9.0780029296875
 30
0.0
 11
75.06600189208984
 21
-8.4739990234375
 31
0.0
  0
LINE
  8
0
 62
0
 10
75.28300476074219
 20
-9.705001831054688
 30
0.0
 11
75.23699951171875
 21
-9.0780029296875
 31
0.0
  0
LINE
  8
0
 62
0
 10
75.20600128173828
 20
-10.308998107910156
 30
0.0
 11
75.28300476074219
 21
-9.705001831054688
 31
0.0
  0
LINE
  8
0
 62
0
 10
75.01599884033203
 20
-10.876998901367188
 30
0.0
 11
75.20600128173828
 21
-10.308998107910156
 31
0.0
  0
LINE
  8
0
 62
0
 10
74.7229995727539
 20
-11.395004272460938
 30
0.0
 11
75.01599884033203
 21
-10.876998901367188
 31
0.0
  0
LINE
  8
0
 62
0
 10
74.33699798583984
 20
-11.847000122070312
 30
0.0
 11
74.7229995727539
 21
-11.395004272460938
 31
0.0
  0
LINE
  8
0
 62
0
 10
73.86799621582031
 20
-12.220001220703125
 30
0.0
 11
74.33699798583984
 21
-11.847000122070312
 31
0.0
  0
LINE
  8
0
 62
0
 10
73.32600402832031
 20
-12.499000549316406
 30
0.0
 11
73.86799621582031
 21
-12.220001220703125
 31
0.0
  0
LINE
  8
0
 62
0
 10
72.72200012207031
 20
-12.669998168945312
 30
0.0
 11
73.32600402832031
 21
-12.499000549316406
 31
0.0
  0
LINE
  8
0
 62
0
 10
72.09600067138672
 20
-12.71600341796875
 30
0.0
 11
72.72200012207031
 21
-12.669998168945312
 31
0.0
  0
LINE
  8
0
 62
0
 10
71.49099731445312
 20
-12.638999938964844
 30
0.0
 11
72.09600067138672
 21
-12.71600341796875
 31
0.0
  0
LINE
  8
0
 62
0
 10
70.92300415039062
 20
-12.448997497558594
 30
0.0
 11
71.49099731445312
 21
-12.638999938964844
 31
0.0
  0
LINE
  8
0
 62
0
 10
70.40599822998047
 20
-12.155998229980469
 30
0.0
 11
70.92300415039062
 21
-12.448997497558594
 31
0.0
  0
LINE
  8
0
 62
0
 10
70.40599822998047
 20
-12.155998229980469
 30
0.0
 11
69.9530029296875
 21
-11.770004272460938
 31
0.0
  0
LINE
  8
0
 62
0
 10
69.9530029296875
 20
-11.770004272460938
 30
0.0
 11
69.58000183105469
 21
-11.301002502441406
 31
0.0
  0
LINE
  8
0
 62
0
 10
69.58000183105469
 20
-11.301002502441406
 30
0.0
 11
69.30099487304688
 21
-10.759002685546875
 31
0.0
  0
LINE
  8
0
 62
0
 10
69.30099487304688
 20
-10.759002685546875
 30
0.0
 11
69.13099670410156
 21
-10.154998779296875
 31
0.0
  0
LINE
  8
0
 62
0
 10
69.13099670410156
 20
-10.154998779296875
 30
0.0
 11
69.08399963378906
 21
-9.528999328613281
 31
0.0
  0
LINE
  8
0
 62
0
 10
69.08399963378906
 20
-9.528999328613281
 30
0.0
 11
69.16099548339844
 21
-8.925003051757812
 31
0.0
  0
LINE
  8
0
 62
0
 10
69.16099548339844
 20
-8.925003051757812
 30
0.0
 11
69.35099792480469
 21
-8.356002807617188
 31
0.0
  0
LINE
  8
0
 62
0
 10
69.64399719238281
 20
-7.8390045166015625
 30
0.0
 11
69.35099792480469
 21
-8.356002807617188
 31
0.0
  0
LINE
  8
0
 62
0
 10
70.02999877929688
 20
-7.3860015869140625
 30
0.0
 11
69.64399719238281
 21
-7.8390045166015625
 31
0.0
  0
LINE
  8
0
 62
0
 10
70.4990005493164
 20
-7.01300048828125
 30
0.0
 11
70.02999877929688
 21
-7.3860015869140625
 31
0.0
  0
LINE
  8
0
 62
0
 10
41.03900146484375
 20
45.305999755859375
 30
0.0
 11
41.31800079345703
 21
44.76499938964844
 31
0.0
  0
LINE
  8
0
 62
0
 10
40.86800003051758
 20
45.9109992980957
 30
0.0
 11
41.03900146484375
 21
45.305999755859375
 31
0.0
  0
LINE
  8
0
 62
0
 10
40.821998596191406
 20
46.5369987487793
 30
0.0
 11
40.86800003051758
 21
45.9109992980957
 31
0.0
  0
LINE
  8
0
 62
0
 10
40.821998596191406
 20
46.5369987487793
 30
0.0
 11
40.89899826049805
 21
47.14099884033203
 31
0.0
  0
LINE
  8
0
 62
0
 10
41.0890007019043
 20
47.709999084472656
 30
0.0
 11
40.89899826049805
 21
47.14099884033203
 31
0.0
  0
LINE
  8
0
 62
0
 10
41.0890007019043
 20
47.709999084472656
 30
0.0
 11
41.38199996948242
 21
48.22699737548828
 31
0.0
  0
LINE
  8
0
 62
0
 10
41.38199996948242
 20
48.22699737548828
 30
0.0
 11
41.768001556396484
 21
48.68000030517578
 31
0.0
  0
LINE
  8
0
 62
0
 10
42.23699951171875
 20
49.05299758911133
 30
0.0
 11
41.768001556396484
 21
48.68000030517578
 31
0.0
  0
LINE
  8
0
 62
0
 10
42.77899932861328
 20
49.330997467041016
 30
0.0
 11
42.23699951171875
 21
49.05299758911133
 31
0.0
  0
LINE
  8
0
 62
0
 10
43.382999420166016
 20
49.50199890136719
 30
0.0
 11
42.77899932861328
 21
49.330997467041016
 31
0.0
  0
LINE
  8
0
 62
0
 10
44.00899887084961
 20
49.54800033569336
 30
0.0
 11
43.382999420166016
 21
49.50199890136719
 31
0.0
  0
LINE
  8
0
 62
0
 10
44.00899887084961
 20
49.54800033569336
 30
0.0
 11
44.61399841308594
 21
49.47200012207031
 31
0.0
  0
LINE
  8
0
 62
0
 10
45.18199920654297
 20
49.28199768066406
 30
0.0
 11
44.61399841308594
 21
49.47200012207031
 31
0.0
  0
LINE
  8
0
 62
0
 10
45.69900131225586
 20
48.987998962402344
 30
0.0
 11
45.18199920654297
 21
49.28199768066406
 31
0.0
  0
LINE
  8
0
 62
0
 10
46.152000427246094
 20
48.60199737548828
 30
0.0
 11
45.69900131225586
 21
48.987998962402344
 31
0.0
  0
LINE
  8
0
 62
0
 10
46.525001525878906
 20
48.132999420166016
 30
0.0
 11
46.152000427246094
 21
48.60199737548828
 31
0.0
  0
LINE
  8
0
 62
0
 10
46.80400085449219
 20
47.59199905395508
 30
0.0
 11
46.525001525878906
 21
48.132999420166016
 31
0.0
  0
LINE
  8
0
 62
0
 10
46.9739990234375
 20
46.98699951171875
 30
0.0
 11
46.80400085449219
 21
47.59199905395508
 31
0.0
  0
LINE
  8
0
 62
0
 10
47.020999908447266
 20
46.361000061035156
 30
0.0
 11
46.9739990234375
 21
46.98699951171875
 31
0.0
  0
LINE
  8
0
 62
0
 10
46.944000244140625
 20
45.75699996948242
 30
0.0
 11
47.020999908447266
 21
46.361000061035156
 31
0.0
  0
LINE
  8
0
 62
0
 10
46.944000244140625
 20
45.75699996948242
 30
0.0
 11
46.75400161743164
 21
45.1879997253418
 31
0.0
  0
LINE
  8
0
 62
0
 10
46.75400161743164
 20
45.1879997253418
 30
0.0
 11
46.46099853515625
 21
44.670997619628906
 31
0.0
  0
LINE
  8
0
 62
0
 10
46.46099853515625
 20
44.670997619628906
 30
0.0
 11
46.07500076293945
 21
44.21799850463867
 31
0.0
  0
LINE
  8
0
 62
0
 10
46.07500076293945
 20
44.21799850463867
 30
0.0
 11
45.60599899291992
 21
43.84600067138672
 31
0.0
  0
LINE
  8
0
 62
0
 10
45.60599899291992
 20
43.84600067138672
 30
0.0
 11
45.06399917602539
 21
43.56699752807617
 31
0.0
  0
LINE
  8
0
 62
0
 10
45.06399917602539
 20
43.56699752807617
 30
0.0
 11
44.459999084472656
 21
43.395999908447266
 31
0.0
  0
LINE
  8
0
 62
0
 10
44.459999084472656
 20
43.395999908447266
 30
0.0
 11
43.83300018310547
 21
43.349998474121094
 31
0.0
  0
LINE
  8
0
 62
0
 10
43.83300018310547
 20
43.349998474121094
 30
0.0
 11
43.229000091552734
 21
43.426998138427734
 31
0.0
  0
LINE
  8
0
 62
0
 10
43.229000091552734
 20
43.426998138427734
 30
0.0
 11
42.6609992980957
 21
43.617000579833984
 31
0.0
  0
LINE
  8
0
 62
0
 10
42.6609992980957
 20
43.617000579833984
 30
0.0
 11
42.143001556396484
 21
43.90999984741211
 31
0.0
  0
LINE
  8
0
 62
0
 10
42.143001556396484
 20
43.90999984741211
 30
0.0
 11
41.691001892089844
 21
44.295997619628906
 31
0.0
  0
LINE
  8
0
 62
0
 10
41.691001892089844
 20
44.295997619628906
 30
0.0
 11
41.31800079345703
 21
44.76499938964844
 31
0.0
  0
ENDBLK
  0
ENDSEC
  0
SECTION
  2
ENTITIES
  0
INSERT
  2
P4_4X001001_SOLID
  8
0
 62
0
 10
0.0
 20
0.0
 30
0.0
  0
ENDSEC
  0
EOF
