  0
SECTION
  2
HEADER
  9
$ACADVER
  1
AC1009
  9
$INSBASE
 10
0.0
 20
0.0
 30
0.0
  9
$EXTMIN
 10
0.0
 20
0.0
 30
0.0
  9
$EXTMAX
 10
0.0
 20
0.0
 30
0.0
  0
ENDSEC
  0
SECTION
  2
TABLES
  0
TABLE
  2
VPORT
 70
0
  0
ENDTAB
  0
TABLE
  2
LTYPE
 70
1
  0
LTYPE
  2
CONTINUOUS
 70
0
  3
Solid line
 72
65
 73
0
 40
0.0
  0
ENDTAB
  0
TABLE
  2
LAYER
 70
1
  0
LAYER
  2
0
 70
64
 62
7
  6
continuous
  0
ENDTAB
  0
TABLE
  2
STYLE
 70
1
  0
STYLE
  2
STANDARD
 70
0
 40
0
 41
1.0
 50
0.0
 71
0
 42
1
 3
ARIAL.TTF
 4

  0
ENDTAB
  0
TABLE
  2
VIEW
 70
0
  0
ENDTAB
  0
ENDSEC
  0
SECTION
  2
BLOCKS
  0
BLOCK
  8
0
  2
ASDA001001_SOLID
 70
0
 10
0.0
 20
0.0
 30
0.0
  3
ASDA001001_SOLID
  0
LINE
  8
0
 62
0
 10
167.5
 20
-98.5
 30
0.0
 11
167.5
 21
-114.0
 31
0.0
  0
LINE
  8
0
 62
0
 10
167.00999450683594
 20
-70.95700073242188
 30
0.0
 11
166.64100646972656
 21
-70.35499572753906
 31
0.0
  0
LINE
  8
0
 62
0
 10
157.72000122070312
 20
-71.60900115966797
 30
0.0
 11
157.55499267578125
 21
-72.2959976196289
 31
0.0
  0
LINE
  8
0
 62
0
 10
141.72000122070312
 20
-71.60900115966797
 30
0.0
 11
141.55499267578125
 21
-72.2959976196289
 31
0.0
  0
LINE
  8
0
 62
0
 10
151.44500732421875
 20
-72.2959976196289
 30
0.0
 11
151.5
 21
-73.0
 31
0.0
  0
LINE
  8
0
 62
0
 10
182.64100646972656
 20
-70.35499572753906
 30
0.0
 11
183.00999450683594
 21
-70.95700073242188
 31
0.0
  0
LINE
  8
0
 62
0
 10
110.12300109863281
 20
-56.43600082397461
 30
0.0
 11
110.0
 21
-58.0
 31
0.0
  0
LINE
  8
0
 62
0
 10
110.0
 20
-129.0
 30
0.0
 11
110.0
 21
-58.0
 31
0.0
  0
LINE
  8
0
 62
0
 10
110.0
 20
-129.0
 30
0.0
 11
110.12300109863281
 21
-130.56399536132812
 31
0.0
  0
LINE
  8
0
 62
0
 10
110.12300109863281
 20
-130.56399536132812
 30
0.0
 11
110.48899841308594
 21
-132.08999633789062
 31
0.0
  0
LINE
  8
0
 62
0
 10
110.48899841308594
 20
-132.08999633789062
 30
0.0
 11
111.08999633789062
 21
-133.54000854492188
 31
0.0
  0
LINE
  8
0
 62
0
 10
111.08999633789062
 20
-133.54000854492188
 30
0.0
 11
111.91000366210938
 21
-134.87799072265625
 31
0.0
  0
LINE
  8
0
 62
0
 10
111.91000366210938
 20
-134.87799072265625
 30
0.0
 11
112.92900085449219
 21
-136.0709991455078
 31
0.0
  0
LINE
  8
0
 62
0
 10
112.92900085449219
 20
-136.0709991455078
 30
0.0
 11
114.12200164794922
 21
-137.08999633789062
 31
0.0
  0
LINE
  8
0
 62
0
 10
114.12200164794922
 20
-137.08999633789062
 30
0.0
 11
115.45999908447266
 21
-137.91000366210938
 31
0.0
  0
LINE
  8
0
 62
0
 10
115.45999908447266
 20
-137.91000366210938
 30
0.0
 11
116.91000366210938
 21
-138.51100158691406
 31
0.0
  0
LINE
  8
0
 62
0
 10
116.91000366210938
 20
-138.51100158691406
 30
0.0
 11
118.43600463867188
 21
-138.8769989013672
 31
0.0
  0
LINE
  8
0
 62
0
 10
118.43600463867188
 20
-138.8769989013672
 30
0.0
 11
120.0
 21
-139.0
 31
0.0
  0
LINE
  8
0
 62
0
 10
205.0
 20
-139.0
 30
0.0
 11
120.0
 21
-139.0
 31
0.0
  0
LINE
  8
0
 62
0
 10
205.0
 20
-139.0
 30
0.0
 11
206.56399536132812
 21
-138.8769989013672
 31
0.0
  0
LINE
  8
0
 62
0
 10
206.56399536132812
 20
-138.8769989013672
 30
0.0
 11
208.08999633789062
 21
-138.51100158691406
 31
0.0
  0
LINE
  8
0
 62
0
 10
208.08999633789062
 20
-138.51100158691406
 30
0.0
 11
209.54000854492188
 21
-137.91000366210938
 31
0.0
  0
LINE
  8
0
 62
0
 10
209.54000854492188
 20
-137.91000366210938
 30
0.0
 11
210.87799072265625
 21
-137.08999633789062
 31
0.0
  0
LINE
  8
0
 62
0
 10
210.87799072265625
 20
-137.08999633789062
 30
0.0
 11
212.0709991455078
 21
-136.0709991455078
 31
0.0
  0
LINE
  8
0
 62
0
 10
212.0709991455078
 20
-136.0709991455078
 30
0.0
 11
213.08999633789062
 21
-134.87799072265625
 31
0.0
  0
LINE
  8
0
 62
0
 10
213.08999633789062
 20
-134.87799072265625
 30
0.0
 11
213.91000366210938
 21
-133.54000854492188
 31
0.0
  0
LINE
  8
0
 62
0
 10
213.91000366210938
 20
-133.54000854492188
 30
0.0
 11
214.51100158691406
 21
-132.08999633789062
 31
0.0
  0
LINE
  8
0
 62
0
 10
214.51100158691406
 20
-132.08999633789062
 30
0.0
 11
214.8769989013672
 21
-130.56399536132812
 31
0.0
  0
LINE
  8
0
 62
0
 10
214.8769989013672
 20
-130.56399536132812
 30
0.0
 11
215.0
 21
-129.0
 31
0.0
  0
LINE
  8
0
 62
0
 10
215.0
 20
-129.0
 30
0.0
 11
215.0
 21
-58.0
 31
0.0
  0
LINE
  8
0
 62
0
 10
215.0
 20
-58.0
 30
0.0
 11
214.8769989013672
 21
-56.43600082397461
 31
0.0
  0
LINE
  8
0
 62
0
 10
214.8769989013672
 20
-56.43600082397461
 30
0.0
 11
214.51100158691406
 21
-54.90999984741211
 31
0.0
  0
LINE
  8
0
 62
0
 10
214.51100158691406
 20
-54.90999984741211
 30
0.0
 11
213.91000366210938
 21
-53.459999084472656
 31
0.0
  0
LINE
  8
0
 62
0
 10
213.91000366210938
 20
-53.459999084472656
 30
0.0
 11
213.08999633789062
 21
-52.12200164794922
 31
0.0
  0
LINE
  8
0
 62
0
 10
213.08999633789062
 20
-52.12200164794922
 30
0.0
 11
212.0709991455078
 21
-50.92900085449219
 31
0.0
  0
LINE
  8
0
 62
0
 10
212.0709991455078
 20
-50.92900085449219
 30
0.0
 11
210.87799072265625
 21
-49.90999984741211
 31
0.0
  0
LINE
  8
0
 62
0
 10
210.87799072265625
 20
-49.90999984741211
 30
0.0
 11
209.54000854492188
 21
-49.09000015258789
 31
0.0
  0
LINE
  8
0
 62
0
 10
209.54000854492188
 20
-49.09000015258789
 30
0.0
 11
208.08999633789062
 21
-48.48899841308594
 31
0.0
  0
LINE
  8
0
 62
0
 10
208.08999633789062
 20
-48.48899841308594
 30
0.0
 11
206.56399536132812
 21
-48.12300109863281
 31
0.0
  0
LINE
  8
0
 62
0
 10
206.56399536132812
 20
-48.12300109863281
 30
0.0
 11
205.0
 21
-48.0
 31
0.0
  0
LINE
  8
0
 62
0
 10
205.0
 20
-48.0
 30
0.0
 11
120.0
 21
-48.0
 31
0.0
  0
LINE
  8
0
 62
0
 10
120.0
 20
-48.0
 30
0.0
 11
118.43600463867188
 21
-48.12300109863281
 31
0.0
  0
LINE
  8
0
 62
0
 10
118.43600463867188
 20
-48.12300109863281
 30
0.0
 11
116.91000366210938
 21
-48.48899841308594
 31
0.0
  0
LINE
  8
0
 62
0
 10
116.91000366210938
 20
-48.48899841308594
 30
0.0
 11
115.45999908447266
 21
-49.09000015258789
 31
0.0
  0
LINE
  8
0
 62
0
 10
115.45999908447266
 20
-49.09000015258789
 30
0.0
 11
114.12200164794922
 21
-49.90999984741211
 31
0.0
  0
LINE
  8
0
 62
0
 10
114.12200164794922
 20
-49.90999984741211
 30
0.0
 11
112.92900085449219
 21
-50.92900085449219
 31
0.0
  0
LINE
  8
0
 62
0
 10
112.92900085449219
 20
-50.92900085449219
 30
0.0
 11
111.91000366210938
 21
-52.12200164794922
 31
0.0
  0
LINE
  8
0
 62
0
 10
111.91000366210938
 20
-52.12200164794922
 30
0.0
 11
111.08999633789062
 21
-53.459999084472656
 31
0.0
  0
LINE
  8
0
 62
0
 10
111.08999633789062
 20
-53.459999084472656
 30
0.0
 11
110.48899841308594
 21
-54.90999984741211
 31
0.0
  0
LINE
  8
0
 62
0
 10
110.48899841308594
 20
-54.90999984741211
 30
0.0
 11
110.12300109863281
 21
-56.43600082397461
 31
0.0
  0
LINE
  8
0
 62
0
 10
141.5
 20
-114.0
 30
0.0
 11
141.5
 21
-73.0
 31
0.0
  0
LINE
  8
0
 62
0
 10
141.5
 20
-73.0
 30
0.0
 11
141.55499267578125
 21
-72.2959976196289
 31
0.0
  0
LINE
  8
0
 62
0
 10
141.99000549316406
 20
-70.95700073242188
 30
0.0
 11
141.72000122070312
 21
-71.60900115966797
 31
0.0
  0
LINE
  8
0
 62
0
 10
142.35899353027344
 20
-70.35499572753906
 30
0.0
 11
141.99000549316406
 21
-70.95700073242188
 31
0.0
  0
LINE
  8
0
 62
0
 10
142.8179931640625
 20
-69.81800079345703
 30
0.0
 11
142.35899353027344
 21
-70.35499572753906
 31
0.0
  0
LINE
  8
0
 62
0
 10
142.8179931640625
 20
-69.81800079345703
 30
0.0
 11
143.35499572753906
 21
-69.35900115966797
 31
0.0
  0
LINE
  8
0
 62
0
 10
143.35499572753906
 20
-69.35900115966797
 30
0.0
 11
143.95700073242188
 21
-68.98999786376953
 31
0.0
  0
LINE
  8
0
 62
0
 10
143.95700073242188
 20
-68.98999786376953
 30
0.0
 11
144.60899353027344
 21
-68.72000122070312
 31
0.0
  0
LINE
  8
0
 62
0
 10
144.60899353027344
 20
-68.72000122070312
 30
0.0
 11
145.29600524902344
 21
-68.55500030517578
 31
0.0
  0
LINE
  8
0
 62
0
 10
145.29600524902344
 20
-68.55500030517578
 30
0.0
 11
146.0
 21
-68.5
 31
0.0
  0
LINE
  8
0
 62
0
 10
146.0
 20
-68.5
 30
0.0
 11
147.0
 21
-68.5
 31
0.0
  0
LINE
  8
0
 62
0
 10
147.70399475097656
 20
-68.55500030517578
 30
0.0
 11
147.0
 21
-68.5
 31
0.0
  0
LINE
  8
0
 62
0
 10
148.39100646972656
 20
-68.72000122070312
 30
0.0
 11
147.70399475097656
 21
-68.55500030517578
 31
0.0
  0
LINE
  8
0
 62
0
 10
148.39100646972656
 20
-68.72000122070312
 30
0.0
 11
149.04299926757812
 21
-68.98999786376953
 31
0.0
  0
LINE
  8
0
 62
0
 10
149.04299926757812
 20
-68.98999786376953
 30
0.0
 11
149.64500427246094
 21
-69.35900115966797
 31
0.0
  0
LINE
  8
0
 62
0
 10
149.64500427246094
 20
-69.35900115966797
 30
0.0
 11
150.1820068359375
 21
-69.81800079345703
 31
0.0
  0
LINE
  8
0
 62
0
 10
150.1820068359375
 20
-69.81800079345703
 30
0.0
 11
150.64100646972656
 21
-70.35499572753906
 31
0.0
  0
LINE
  8
0
 62
0
 10
150.64100646972656
 20
-70.35499572753906
 30
0.0
 11
151.00999450683594
 21
-70.95700073242188
 31
0.0
  0
LINE
  8
0
 62
0
 10
151.00999450683594
 20
-70.95700073242188
 30
0.0
 11
151.27999877929688
 21
-71.60900115966797
 31
0.0
  0
LINE
  8
0
 62
0
 10
151.27999877929688
 20
-71.60900115966797
 30
0.0
 11
151.44500732421875
 21
-72.2959976196289
 31
0.0
  0
LINE
  8
0
 62
0
 10
151.5
 20
-73.0
 30
0.0
 11
151.5
 21
-83.5
 31
0.0
  0
LINE
  8
0
 62
0
 10
156.5
 20
-88.5
 30
0.0
 11
151.5
 21
-83.5
 31
0.0
  0
LINE
  8
0
 62
0
 10
157.5
 20
-88.5
 30
0.0
 11
156.5
 21
-88.5
 31
0.0
  0
LINE
  8
0
 62
0
 10
157.5
 20
-88.5
 30
0.0
 11
157.5
 21
-73.0
 31
0.0
  0
LINE
  8
0
 62
0
 10
157.5
 20
-73.0
 30
0.0
 11
157.55499267578125
 21
-72.2959976196289
 31
0.0
  0
LINE
  8
0
 62
0
 10
157.99000549316406
 20
-70.95700073242188
 30
0.0
 11
157.72000122070312
 21
-71.60900115966797
 31
0.0
  0
LINE
  8
0
 62
0
 10
158.35899353027344
 20
-70.35499572753906
 30
0.0
 11
157.99000549316406
 21
-70.95700073242188
 31
0.0
  0
LINE
  8
0
 62
0
 10
158.8179931640625
 20
-69.81800079345703
 30
0.0
 11
158.35899353027344
 21
-70.35499572753906
 31
0.0
  0
LINE
  8
0
 62
0
 10
159.35499572753906
 20
-69.35900115966797
 30
0.0
 11
158.8179931640625
 21
-69.81800079345703
 31
0.0
  0
LINE
  8
0
 62
0
 10
159.95700073242188
 20
-68.98999786376953
 30
0.0
 11
159.35499572753906
 21
-69.35900115966797
 31
0.0
  0
LINE
  8
0
 62
0
 10
160.60899353027344
 20
-68.72000122070312
 30
0.0
 11
159.95700073242188
 21
-68.98999786376953
 31
0.0
  0
LINE
  8
0
 62
0
 10
161.29600524902344
 20
-68.55500030517578
 30
0.0
 11
160.60899353027344
 21
-68.72000122070312
 31
0.0
  0
LINE
  8
0
 62
0
 10
162.0
 20
-68.5
 30
0.0
 11
161.29600524902344
 21
-68.55500030517578
 31
0.0
  0
LINE
  8
0
 62
0
 10
163.0
 20
-68.5
 30
0.0
 11
162.0
 21
-68.5
 31
0.0
  0
LINE
  8
0
 62
0
 10
163.70399475097656
 20
-68.55500030517578
 30
0.0
 11
163.0
 21
-68.5
 31
0.0
  0
LINE
  8
0
 62
0
 10
164.39100646972656
 20
-68.72000122070312
 30
0.0
 11
163.70399475097656
 21
-68.55500030517578
 31
0.0
  0
LINE
  8
0
 62
0
 10
164.39100646972656
 20
-68.72000122070312
 30
0.0
 11
165.04299926757812
 21
-68.98999786376953
 31
0.0
  0
LINE
  8
0
 62
0
 10
165.04299926757812
 20
-68.98999786376953
 30
0.0
 11
165.64500427246094
 21
-69.35900115966797
 31
0.0
  0
LINE
  8
0
 62
0
 10
165.64500427246094
 20
-69.35900115966797
 30
0.0
 11
166.1820068359375
 21
-69.81800079345703
 31
0.0
  0
LINE
  8
0
 62
0
 10
166.1820068359375
 20
-69.81800079345703
 30
0.0
 11
166.64100646972656
 21
-70.35499572753906
 31
0.0
  0
LINE
  8
0
 62
0
 10
167.27999877929688
 20
-71.60900115966797
 30
0.0
 11
167.00999450683594
 21
-70.95700073242188
 31
0.0
  0
LINE
  8
0
 62
0
 10
167.44500732421875
 20
-72.2959976196289
 30
0.0
 11
167.27999877929688
 21
-71.60900115966797
 31
0.0
  0
LINE
  8
0
 62
0
 10
167.5
 20
-73.0
 30
0.0
 11
167.44500732421875
 21
-72.2959976196289
 31
0.0
  0
LINE
  8
0
 62
0
 10
167.5
 20
-83.5
 30
0.0
 11
167.5
 21
-73.0
 31
0.0
  0
LINE
  8
0
 62
0
 10
167.5
 20
-83.5
 30
0.0
 11
172.5
 21
-88.5
 31
0.0
  0
LINE
  8
0
 62
0
 10
172.5
 20
-88.5
 30
0.0
 11
173.5
 21
-88.5
 31
0.0
  0
LINE
  8
0
 62
0
 10
173.5
 20
-73.0
 30
0.0
 11
173.5
 21
-88.5
 31
0.0
  0
LINE
  8
0
 62
0
 10
173.55499267578125
 20
-72.2959976196289
 30
0.0
 11
173.5
 21
-73.0
 31
0.0
  0
LINE
  8
0
 62
0
 10
173.72000122070312
 20
-71.60900115966797
 30
0.0
 11
173.55499267578125
 21
-72.2959976196289
 31
0.0
  0
LINE
  8
0
 62
0
 10
173.99000549316406
 20
-70.95700073242188
 30
0.0
 11
173.72000122070312
 21
-71.60900115966797
 31
0.0
  0
LINE
  8
0
 62
0
 10
174.35899353027344
 20
-70.35499572753906
 30
0.0
 11
173.99000549316406
 21
-70.95700073242188
 31
0.0
  0
LINE
  8
0
 62
0
 10
174.8179931640625
 20
-69.81800079345703
 30
0.0
 11
174.35899353027344
 21
-70.35499572753906
 31
0.0
  0
LINE
  8
0
 62
0
 10
175.35499572753906
 20
-69.35900115966797
 30
0.0
 11
174.8179931640625
 21
-69.81800079345703
 31
0.0
  0
LINE
  8
0
 62
0
 10
175.95700073242188
 20
-68.98999786376953
 30
0.0
 11
175.35499572753906
 21
-69.35900115966797
 31
0.0
  0
LINE
  8
0
 62
0
 10
175.95700073242188
 20
-68.98999786376953
 30
0.0
 11
176.60899353027344
 21
-68.72000122070312
 31
0.0
  0
LINE
  8
0
 62
0
 10
176.60899353027344
 20
-68.72000122070312
 30
0.0
 11
177.29600524902344
 21
-68.55500030517578
 31
0.0
  0
LINE
  8
0
 62
0
 10
177.29600524902344
 20
-68.55500030517578
 30
0.0
 11
178.0
 21
-68.5
 31
0.0
  0
LINE
  8
0
 62
0
 10
178.0
 20
-68.5
 30
0.0
 11
179.0
 21
-68.5
 31
0.0
  0
LINE
  8
0
 62
0
 10
179.0
 20
-68.5
 30
0.0
 11
179.70399475097656
 21
-68.55500030517578
 31
0.0
  0
LINE
  8
0
 62
0
 10
179.70399475097656
 20
-68.55500030517578
 30
0.0
 11
180.39100646972656
 21
-68.72000122070312
 31
0.0
  0
LINE
  8
0
 62
0
 10
180.39100646972656
 20
-68.72000122070312
 30
0.0
 11
181.04299926757812
 21
-68.98999786376953
 31
0.0
  0
LINE
  8
0
 62
0
 10
181.04299926757812
 20
-68.98999786376953
 30
0.0
 11
181.64500427246094
 21
-69.35900115966797
 31
0.0
  0
LINE
  8
0
 62
0
 10
181.64500427246094
 20
-69.35900115966797
 30
0.0
 11
182.1820068359375
 21
-69.81800079345703
 31
0.0
  0
LINE
  8
0
 62
0
 10
182.1820068359375
 20
-69.81800079345703
 30
0.0
 11
182.64100646972656
 21
-70.35499572753906
 31
0.0
  0
LINE
  8
0
 62
0
 10
183.00999450683594
 20
-70.95700073242188
 30
0.0
 11
183.27999877929688
 21
-71.60900115966797
 31
0.0
  0
LINE
  8
0
 62
0
 10
183.27999877929688
 20
-71.60900115966797
 30
0.0
 11
183.44500732421875
 21
-72.2959976196289
 31
0.0
  0
LINE
  8
0
 62
0
 10
183.44500732421875
 20
-72.2959976196289
 30
0.0
 11
183.5
 21
-73.0
 31
0.0
  0
LINE
  8
0
 62
0
 10
183.5
 20
-73.0
 30
0.0
 11
183.5
 21
-88.5
 31
0.0
  0
LINE
  8
0
 62
0
 10
183.5
 20
-88.5
 30
0.0
 11
186.5
 21
-88.5
 31
0.0
  0
LINE
  8
0
 62
0
 10
186.5
 20
-88.5
 30
0.0
 11
186.968994140625
 21
-88.46299743652344
 31
0.0
  0
LINE
  8
0
 62
0
 10
186.968994140625
 20
-88.46299743652344
 30
0.0
 11
187.427001953125
 21
-88.35299682617188
 31
0.0
  0
LINE
  8
0
 62
0
 10
187.427001953125
 20
-88.35299682617188
 30
0.0
 11
187.86199951171875
 21
-88.1729965209961
 31
0.0
  0
LINE
  8
0
 62
0
 10
187.86199951171875
 20
-88.1729965209961
 30
0.0
 11
188.26300048828125
 21
-87.927001953125
 31
0.0
  0
LINE
  8
0
 62
0
 10
188.26300048828125
 20
-87.927001953125
 30
0.0
 11
188.62100219726562
 21
-87.62100219726562
 31
0.0
  0
LINE
  8
0
 62
0
 10
188.62100219726562
 20
-87.62100219726562
 30
0.0
 11
188.927001953125
 21
-87.26300048828125
 31
0.0
  0
LINE
  8
0
 62
0
 10
188.927001953125
 20
-87.26300048828125
 30
0.0
 11
189.17300415039062
 21
-86.86199951171875
 31
0.0
  0
LINE
  8
0
 62
0
 10
189.17300415039062
 20
-86.86199951171875
 30
0.0
 11
189.35299682617188
 21
-86.427001953125
 31
0.0
  0
LINE
  8
0
 62
0
 10
189.35299682617188
 20
-86.427001953125
 30
0.0
 11
189.46299743652344
 21
-85.96900177001953
 31
0.0
  0
LINE
  8
0
 62
0
 10
189.46299743652344
 20
-85.96900177001953
 30
0.0
 11
189.5
 21
-85.5
 31
0.0
  0
LINE
  8
0
 62
0
 10
189.5
 20
-85.5
 30
0.0
 11
189.5
 21
-73.0
 31
0.0
  0
LINE
  8
0
 62
0
 10
189.5
 20
-73.0
 30
0.0
 11
189.55499267578125
 21
-72.2959976196289
 31
0.0
  0
LINE
  8
0
 62
0
 10
189.55499267578125
 20
-72.2959976196289
 30
0.0
 11
189.72000122070312
 21
-71.60900115966797
 31
0.0
  0
LINE
  8
0
 62
0
 10
189.72000122070312
 20
-71.60900115966797
 30
0.0
 11
189.99000549316406
 21
-70.95700073242188
 31
0.0
  0
LINE
  8
0
 62
0
 10
189.99000549316406
 20
-70.95700073242188
 30
0.0
 11
190.35899353027344
 21
-70.35499572753906
 31
0.0
  0
LINE
  8
0
 62
0
 10
190.35899353027344
 20
-70.35499572753906
 30
0.0
 11
190.8179931640625
 21
-69.81800079345703
 31
0.0
  0
LINE
  8
0
 62
0
 10
190.8179931640625
 20
-69.81800079345703
 30
0.0
 11
191.35499572753906
 21
-69.35900115966797
 31
0.0
  0
LINE
  8
0
 62
0
 10
191.35499572753906
 20
-69.35900115966797
 30
0.0
 11
191.95700073242188
 21
-68.98999786376953
 31
0.0
  0
LINE
  8
0
 62
0
 10
191.95700073242188
 20
-68.98999786376953
 30
0.0
 11
192.60899353027344
 21
-68.72000122070312
 31
0.0
  0
LINE
  8
0
 62
0
 10
192.60899353027344
 20
-68.72000122070312
 30
0.0
 11
193.29600524902344
 21
-68.55500030517578
 31
0.0
  0
LINE
  8
0
 62
0
 10
193.29600524902344
 20
-68.55500030517578
 30
0.0
 11
194.0
 21
-68.5
 31
0.0
  0
LINE
  8
0
 62
0
 10
194.0
 20
-68.5
 30
0.0
 11
195.0
 21
-68.5
 31
0.0
  0
LINE
  8
0
 62
0
 10
195.0
 20
-68.5
 30
0.0
 11
195.70399475097656
 21
-68.55500030517578
 31
0.0
  0
LINE
  8
0
 62
0
 10
195.70399475097656
 20
-68.55500030517578
 30
0.0
 11
196.3909912109375
 21
-68.72000122070312
 31
0.0
  0
LINE
  8
0
 62
0
 10
196.3909912109375
 20
-68.72000122070312
 30
0.0
 11
197.04299926757812
 21
-68.98999786376953
 31
0.0
  0
LINE
  8
0
 62
0
 10
197.64500427246094
 20
-69.35900115966797
 30
0.0
 11
197.04299926757812
 21
-68.98999786376953
 31
0.0
  0
LINE
  8
0
 62
0
 10
198.1820068359375
 20
-69.81800079345703
 30
0.0
 11
197.64500427246094
 21
-69.35900115966797
 31
0.0
  0
LINE
  8
0
 62
0
 10
198.1820068359375
 20
-69.81800079345703
 30
0.0
 11
198.6409912109375
 21
-70.35499572753906
 31
0.0
  0
LINE
  8
0
 62
0
 10
198.6409912109375
 20
-70.35499572753906
 30
0.0
 11
199.00999450683594
 21
-70.95700073242188
 31
0.0
  0
LINE
  8
0
 62
0
 10
199.00999450683594
 20
-70.95700073242188
 30
0.0
 11
199.27999877929688
 21
-71.60900115966797
 31
0.0
  0
LINE
  8
0
 62
0
 10
199.27999877929688
 20
-71.60900115966797
 30
0.0
 11
199.44500732421875
 21
-72.2959976196289
 31
0.0
  0
LINE
  8
0
 62
0
 10
199.44500732421875
 20
-72.2959976196289
 30
0.0
 11
199.5
 21
-73.0
 31
0.0
  0
LINE
  8
0
 62
0
 10
199.5
 20
-73.0
 30
0.0
 11
199.5
 21
-87.5
 31
0.0
  0
LINE
  8
0
 62
0
 10
199.36500549316406
 20
-89.22100067138672
 30
0.0
 11
199.5
 21
-87.5
 31
0.0
  0
LINE
  8
0
 62
0
 10
198.96200561523438
 20
-90.89900207519531
 30
0.0
 11
199.36500549316406
 21
-89.22100067138672
 31
0.0
  0
LINE
  8
0
 62
0
 10
198.30099487304688
 20
-92.49400329589844
 30
0.0
 11
198.96200561523438
 21
-90.89900207519531
 31
0.0
  0
LINE
  8
0
 62
0
 10
198.30099487304688
 20
-92.49400329589844
 30
0.0
 11
197.3990020751953
 21
-93.96600341796875
 31
0.0
  0
LINE
  8
0
 62
0
 10
196.2779998779297
 20
-95.27799987792969
 30
0.0
 11
197.3990020751953
 21
-93.96600341796875
 31
0.0
  0
LINE
  8
0
 62
0
 10
194.96600341796875
 20
-96.39900207519531
 30
0.0
 11
196.2779998779297
 21
-95.27799987792969
 31
0.0
  0
LINE
  8
0
 62
0
 10
193.49400329589844
 20
-97.3010025024414
 30
0.0
 11
194.96600341796875
 21
-96.39900207519531
 31
0.0
  0
LINE
  8
0
 62
0
 10
191.8990020751953
 20
-97.96199798583984
 30
0.0
 11
193.49400329589844
 21
-97.3010025024414
 31
0.0
  0
LINE
  8
0
 62
0
 10
190.22100830078125
 20
-98.36499786376953
 30
0.0
 11
191.8990020751953
 21
-97.96199798583984
 31
0.0
  0
LINE
  8
0
 62
0
 10
188.5
 20
-98.5
 30
0.0
 11
190.22100830078125
 21
-98.36499786376953
 31
0.0
  0
LINE
  8
0
 62
0
 10
183.5
 20
-98.5
 30
0.0
 11
188.5
 21
-98.5
 31
0.0
  0
LINE
  8
0
 62
0
 10
183.5
 20
-114.0
 30
0.0
 11
183.5
 21
-98.5
 31
0.0
  0
LINE
  8
0
 62
0
 10
183.44500732421875
 20
-114.7040023803711
 30
0.0
 11
183.5
 21
-114.0
 31
0.0
  0
LINE
  8
0
 62
0
 10
183.27999877929688
 20
-115.39099884033203
 30
0.0
 11
183.44500732421875
 21
-114.7040023803711
 31
0.0
  0
LINE
  8
0
 62
0
 10
183.00999450683594
 20
-116.04299926757812
 30
0.0
 11
183.27999877929688
 21
-115.39099884033203
 31
0.0
  0
LINE
  8
0
 62
0
 10
183.00999450683594
 20
-116.04299926757812
 30
0.0
 11
182.64100646972656
 21
-116.64500427246094
 31
0.0
  0
LINE
  8
0
 62
0
 10
182.64100646972656
 20
-116.64500427246094
 30
0.0
 11
182.1820068359375
 21
-117.18199920654297
 31
0.0
  0
LINE
  8
0
 62
0
 10
181.64500427246094
 20
-117.64099884033203
 30
0.0
 11
182.1820068359375
 21
-117.18199920654297
 31
0.0
  0
LINE
  8
0
 62
0
 10
181.04299926757812
 20
-118.01000213623047
 30
0.0
 11
181.64500427246094
 21
-117.64099884033203
 31
0.0
  0
LINE
  8
0
 62
0
 10
181.04299926757812
 20
-118.01000213623047
 30
0.0
 11
180.39100646972656
 21
-118.27999877929688
 31
0.0
  0
LINE
  8
0
 62
0
 10
180.39100646972656
 20
-118.27999877929688
 30
0.0
 11
179.70399475097656
 21
-118.44499969482422
 31
0.0
  0
LINE
  8
0
 62
0
 10
179.70399475097656
 20
-118.44499969482422
 30
0.0
 11
179.0
 21
-118.5
 31
0.0
  0
LINE
  8
0
 62
0
 10
179.0
 20
-118.5
 30
0.0
 11
178.0
 21
-118.5
 31
0.0
  0
LINE
  8
0
 62
0
 10
178.0
 20
-118.5
 30
0.0
 11
177.29600524902344
 21
-118.44499969482422
 31
0.0
  0
LINE
  8
0
 62
0
 10
177.29600524902344
 20
-118.44499969482422
 30
0.0
 11
176.60899353027344
 21
-118.27999877929688
 31
0.0
  0
LINE
  8
0
 62
0
 10
176.60899353027344
 20
-118.27999877929688
 30
0.0
 11
175.95700073242188
 21
-118.01000213623047
 31
0.0
  0
LINE
  8
0
 62
0
 10
175.95700073242188
 20
-118.01000213623047
 30
0.0
 11
175.35499572753906
 21
-117.64099884033203
 31
0.0
  0
LINE
  8
0
 62
0
 10
175.35499572753906
 20
-117.64099884033203
 30
0.0
 11
174.8179931640625
 21
-117.18199920654297
 31
0.0
  0
LINE
  8
0
 62
0
 10
174.8179931640625
 20
-117.18199920654297
 30
0.0
 11
174.35899353027344
 21
-116.64500427246094
 31
0.0
  0
LINE
  8
0
 62
0
 10
174.35899353027344
 20
-116.64500427246094
 30
0.0
 11
173.99000549316406
 21
-116.04299926757812
 31
0.0
  0
LINE
  8
0
 62
0
 10
173.99000549316406
 20
-116.04299926757812
 30
0.0
 11
173.72000122070312
 21
-115.39099884033203
 31
0.0
  0
LINE
  8
0
 62
0
 10
173.72000122070312
 20
-115.39099884033203
 30
0.0
 11
173.55499267578125
 21
-114.7040023803711
 31
0.0
  0
LINE
  8
0
 62
0
 10
173.55499267578125
 20
-114.7040023803711
 30
0.0
 11
173.5
 21
-114.0
 31
0.0
  0
LINE
  8
0
 62
0
 10
173.5
 20
-114.0
 30
0.0
 11
173.5
 21
-103.5
 31
0.0
  0
LINE
  8
0
 62
0
 10
168.5
 20
-98.5
 30
0.0
 11
173.5
 21
-103.5
 31
0.0
  0
LINE
  8
0
 62
0
 10
167.5
 20
-98.5
 30
0.0
 11
168.5
 21
-98.5
 31
0.0
  0
LINE
  8
0
 62
0
 10
167.5
 20
-114.0
 30
0.0
 11
167.44500732421875
 21
-114.7040023803711
 31
0.0
  0
LINE
  8
0
 62
0
 10
167.44500732421875
 20
-114.7040023803711
 30
0.0
 11
167.27999877929688
 21
-115.39099884033203
 31
0.0
  0
LINE
  8
0
 62
0
 10
167.27999877929688
 20
-115.39099884033203
 30
0.0
 11
167.00999450683594
 21
-116.04299926757812
 31
0.0
  0
LINE
  8
0
 62
0
 10
167.00999450683594
 20
-116.04299926757812
 30
0.0
 11
166.64100646972656
 21
-116.64500427246094
 31
0.0
  0
LINE
  8
0
 62
0
 10
166.64100646972656
 20
-116.64500427246094
 30
0.0
 11
166.1820068359375
 21
-117.18199920654297
 31
0.0
  0
LINE
  8
0
 62
0
 10
166.1820068359375
 20
-117.18199920654297
 30
0.0
 11
165.64500427246094
 21
-117.64099884033203
 31
0.0
  0
LINE
  8
0
 62
0
 10
165.64500427246094
 20
-117.64099884033203
 30
0.0
 11
165.04299926757812
 21
-118.01000213623047
 31
0.0
  0
LINE
  8
0
 62
0
 10
165.04299926757812
 20
-118.01000213623047
 30
0.0
 11
164.39100646972656
 21
-118.27999877929688
 31
0.0
  0
LINE
  8
0
 62
0
 10
163.70399475097656
 20
-118.44499969482422
 30
0.0
 11
164.39100646972656
 21
-118.27999877929688
 31
0.0
  0
LINE
  8
0
 62
0
 10
163.0
 20
-118.5
 30
0.0
 11
163.70399475097656
 21
-118.44499969482422
 31
0.0
  0
LINE
  8
0
 62
0
 10
162.0
 20
-118.5
 30
0.0
 11
163.0
 21
-118.5
 31
0.0
  0
LINE
  8
0
 62
0
 10
161.29600524902344
 20
-118.44499969482422
 30
0.0
 11
162.0
 21
-118.5
 31
0.0
  0
LINE
  8
0
 62
0
 10
160.60899353027344
 20
-118.27999877929688
 30
0.0
 11
161.29600524902344
 21
-118.44499969482422
 31
0.0
  0
LINE
  8
0
 62
0
 10
160.60899353027344
 20
-118.27999877929688
 30
0.0
 11
159.95700073242188
 21
-118.01000213623047
 31
0.0
  0
LINE
  8
0
 62
0
 10
159.95700073242188
 20
-118.01000213623047
 30
0.0
 11
159.35499572753906
 21
-117.64099884033203
 31
0.0
  0
LINE
  8
0
 62
0
 10
159.35499572753906
 20
-117.64099884033203
 30
0.0
 11
158.8179931640625
 21
-117.18199920654297
 31
0.0
  0
LINE
  8
0
 62
0
 10
158.8179931640625
 20
-117.18199920654297
 30
0.0
 11
158.35899353027344
 21
-116.64500427246094
 31
0.0
  0
LINE
  8
0
 62
0
 10
158.35899353027344
 20
-116.64500427246094
 30
0.0
 11
157.99000549316406
 21
-116.04299926757812
 31
0.0
  0
LINE
  8
0
 62
0
 10
157.99000549316406
 20
-116.04299926757812
 30
0.0
 11
157.72000122070312
 21
-115.39099884033203
 31
0.0
  0
LINE
  8
0
 62
0
 10
157.72000122070312
 20
-115.39099884033203
 30
0.0
 11
157.55499267578125
 21
-114.7040023803711
 31
0.0
  0
LINE
  8
0
 62
0
 10
157.55499267578125
 20
-114.7040023803711
 30
0.0
 11
157.5
 21
-114.0
 31
0.0
  0
LINE
  8
0
 62
0
 10
157.5
 20
-114.0
 30
0.0
 11
157.5
 21
-103.5
 31
0.0
  0
LINE
  8
0
 62
0
 10
157.5
 20
-103.5
 30
0.0
 11
152.5
 21
-98.5
 31
0.0
  0
LINE
  8
0
 62
0
 10
152.5
 20
-98.5
 30
0.0
 11
151.5
 21
-98.5
 31
0.0
  0
LINE
  8
0
 62
0
 10
151.5
 20
-98.5
 30
0.0
 11
151.5
 21
-114.0
 31
0.0
  0
LINE
  8
0
 62
0
 10
151.5
 20
-114.0
 30
0.0
 11
151.44500732421875
 21
-114.7040023803711
 31
0.0
  0
LINE
  8
0
 62
0
 10
151.44500732421875
 20
-114.7040023803711
 30
0.0
 11
151.27999877929688
 21
-115.39099884033203
 31
0.0
  0
LINE
  8
0
 62
0
 10
151.27999877929688
 20
-115.39099884033203
 30
0.0
 11
151.00999450683594
 21
-116.04299926757812
 31
0.0
  0
LINE
  8
0
 62
0
 10
151.00999450683594
 20
-116.04299926757812
 30
0.0
 11
150.64100646972656
 21
-116.64500427246094
 31
0.0
  0
LINE
  8
0
 62
0
 10
150.1820068359375
 20
-117.18199920654297
 30
0.0
 11
150.64100646972656
 21
-116.64500427246094
 31
0.0
  0
LINE
  8
0
 62
0
 10
149.64500427246094
 20
-117.64099884033203
 30
0.0
 11
150.1820068359375
 21
-117.18199920654297
 31
0.0
  0
LINE
  8
0
 62
0
 10
149.04299926757812
 20
-118.01000213623047
 30
0.0
 11
149.64500427246094
 21
-117.64099884033203
 31
0.0
  0
LINE
  8
0
 62
0
 10
148.39100646972656
 20
-118.27999877929688
 30
0.0
 11
149.04299926757812
 21
-118.01000213623047
 31
0.0
  0
LINE
  8
0
 62
0
 10
147.70399475097656
 20
-118.44499969482422
 30
0.0
 11
148.39100646972656
 21
-118.27999877929688
 31
0.0
  0
LINE
  8
0
 62
0
 10
147.0
 20
-118.5
 30
0.0
 11
147.70399475097656
 21
-118.44499969482422
 31
0.0
  0
LINE
  8
0
 62
0
 10
147.0
 20
-118.5
 30
0.0
 11
146.0
 21
-118.5
 31
0.0
  0
LINE
  8
0
 62
0
 10
146.0
 20
-118.5
 30
0.0
 11
145.29600524902344
 21
-118.44499969482422
 31
0.0
  0
LINE
  8
0
 62
0
 10
145.29600524902344
 20
-118.44499969482422
 30
0.0
 11
144.60899353027344
 21
-118.27999877929688
 31
0.0
  0
LINE
  8
0
 62
0
 10
144.60899353027344
 20
-118.27999877929688
 30
0.0
 11
143.95700073242188
 21
-118.01000213623047
 31
0.0
  0
LINE
  8
0
 62
0
 10
143.95700073242188
 20
-118.01000213623047
 30
0.0
 11
143.35499572753906
 21
-117.64099884033203
 31
0.0
  0
LINE
  8
0
 62
0
 10
142.8179931640625
 20
-117.18199920654297
 30
0.0
 11
143.35499572753906
 21
-117.64099884033203
 31
0.0
  0
LINE
  8
0
 62
0
 10
142.35899353027344
 20
-116.64500427246094
 30
0.0
 11
142.8179931640625
 21
-117.18199920654297
 31
0.0
  0
LINE
  8
0
 62
0
 10
142.35899353027344
 20
-116.64500427246094
 30
0.0
 11
141.99000549316406
 21
-116.04299926757812
 31
0.0
  0
LINE
  8
0
 62
0
 10
141.99000549316406
 20
-116.04299926757812
 30
0.0
 11
141.72000122070312
 21
-115.39099884033203
 31
0.0
  0
LINE
  8
0
 62
0
 10
141.72000122070312
 20
-115.39099884033203
 30
0.0
 11
141.55499267578125
 21
-114.7040023803711
 31
0.0
  0
LINE
  8
0
 62
0
 10
141.5
 20
-114.0
 30
0.0
 11
141.55499267578125
 21
-114.7040023803711
 31
0.0
  0
LINE
  8
0
 62
0
 10
122.2449951171875
 20
-89.22100067138672
 30
0.0
 11
123.01699829101562
 21
-88.697998046875
 31
0.0
  0
LINE
  8
0
 62
0
 10
123.01699829101562
 20
-88.697998046875
 30
0.0
 11
123.86700439453125
 21
-88.31400299072266
 31
0.0
  0
LINE
  8
0
 62
0
 10
123.86700439453125
 20
-88.31400299072266
 30
0.0
 11
124.77000427246094
 21
-88.0790023803711
 31
0.0
  0
LINE
  8
0
 62
0
 10
124.77000427246094
 20
-88.0790023803711
 30
0.0
 11
125.69999694824219
 21
-88.0
 31
0.0
  0
LINE
  8
0
 62
0
 10
125.69999694824219
 20
-88.0
 30
0.0
 11
126.62899780273438
 21
-88.0790023803711
 31
0.0
  0
LINE
  8
0
 62
0
 10
126.62899780273438
 20
-88.0790023803711
 30
0.0
 11
127.53199768066406
 21
-88.31400299072266
 31
0.0
  0
LINE
  8
0
 62
0
 10
127.53199768066406
 20
-88.31400299072266
 30
0.0
 11
128.3820037841797
 21
-88.697998046875
 31
0.0
  0
LINE
  8
0
 62
0
 10
128.3820037841797
 20
-88.697998046875
 30
0.0
 11
129.15499877929688
 21
-89.22100067138672
 31
0.0
  0
LINE
  8
0
 62
0
 10
129.15499877929688
 20
-89.22100067138672
 30
0.0
 11
129.8280029296875
 21
-89.86599731445312
 31
0.0
  0
LINE
  8
0
 62
0
 10
130.38299560546875
 20
-90.61599731445312
 30
0.0
 11
129.8280029296875
 21
-89.86599731445312
 31
0.0
  0
LINE
  8
0
 62
0
 10
130.80299377441406
 20
-91.4489974975586
 30
0.0
 11
130.38299560546875
 21
-90.61599731445312
 31
0.0
  0
LINE
  8
0
 62
0
 10
131.0760040283203
 20
-92.34100341796875
 30
0.0
 11
130.80299377441406
 21
-91.4489974975586
 31
0.0
  0
LINE
  8
0
 62
0
 10
131.19500732421875
 20
-93.26699829101562
 30
0.0
 11
131.0760040283203
 21
-92.34100341796875
 31
0.0
  0
LINE
  8
0
 62
0
 10
131.19500732421875
 20
-93.26699829101562
 30
0.0
 11
131.15499877929688
 21
-94.1989974975586
 31
0.0
  0
LINE
  8
0
 62
0
 10
131.15499877929688
 20
-94.1989974975586
 30
0.0
 11
130.95899963378906
 21
-95.11100006103516
 31
0.0
  0
LINE
  8
0
 62
0
 10
130.95899963378906
 20
-95.11100006103516
 30
0.0
 11
130.61099243164062
 21
-95.97599792480469
 31
0.0
  0
LINE
  8
0
 62
0
 10
130.61099243164062
 20
-95.97599792480469
 30
0.0
 11
130.12200927734375
 21
-96.7699966430664
 31
0.0
  0
LINE
  8
0
 62
0
 10
130.12200927734375
 20
-96.7699966430664
 30
0.0
 11
129.5050048828125
 21
-97.47100067138672
 31
0.0
  0
LINE
  8
0
 62
0
 10
129.5050048828125
 20
-97.47100067138672
 30
0.0
 11
128.77999877929688
 21
-98.05699920654297
 31
0.0
  0
LINE
  8
0
 62
0
 10
128.77999877929688
 20
-98.05699920654297
 30
0.0
 11
127.96499633789062
 21
-98.51200103759766
 31
0.0
  0
LINE
  8
0
 62
0
 10
127.96499633789062
 20
-98.51200103759766
 30
0.0
 11
127.08599853515625
 21
-98.822998046875
 31
0.0
  0
LINE
  8
0
 62
0
 10
127.08599853515625
 20
-98.822998046875
 30
0.0
 11
126.16600036621094
 21
-98.9800033569336
 31
0.0
  0
LINE
  8
0
 62
0
 10
126.16600036621094
 20
-98.9800033569336
 30
0.0
 11
125.23300170898438
 21
-98.9800033569336
 31
0.0
  0
LINE
  8
0
 62
0
 10
125.23300170898438
 20
-98.9800033569336
 30
0.0
 11
124.31399536132812
 21
-98.822998046875
 31
0.0
  0
LINE
  8
0
 62
0
 10
124.31399536132812
 20
-98.822998046875
 30
0.0
 11
123.43399810791016
 21
-98.51200103759766
 31
0.0
  0
LINE
  8
0
 62
0
 10
123.43399810791016
 20
-98.51200103759766
 30
0.0
 11
122.6199951171875
 21
-98.05699920654297
 31
0.0
  0
LINE
  8
0
 62
0
 10
122.6199951171875
 20
-98.05699920654297
 30
0.0
 11
121.89399719238281
 21
-97.47100067138672
 31
0.0
  0
LINE
  8
0
 62
0
 10
121.89399719238281
 20
-97.47100067138672
 30
0.0
 11
121.27799987792969
 21
-96.7699966430664
 31
0.0
  0
LINE
  8
0
 62
0
 10
121.27799987792969
 20
-96.7699966430664
 30
0.0
 11
120.78900146484375
 21
-95.97599792480469
 31
0.0
  0
LINE
  8
0
 62
0
 10
120.78900146484375
 20
-95.97599792480469
 30
0.0
 11
120.44100189208984
 21
-95.11100006103516
 31
0.0
  0
LINE
  8
0
 62
0
 10
120.44100189208984
 20
-95.11100006103516
 30
0.0
 11
120.24400329589844
 21
-94.1989974975586
 31
0.0
  0
LINE
  8
0
 62
0
 10
120.24400329589844
 20
-94.1989974975586
 30
0.0
 11
120.20500183105469
 21
-93.26699829101562
 31
0.0
  0
LINE
  8
0
 62
0
 10
120.20500183105469
 20
-93.26699829101562
 30
0.0
 11
120.322998046875
 21
-92.34100341796875
 31
0.0
  0
LINE
  8
0
 62
0
 10
120.322998046875
 20
-92.34100341796875
 30
0.0
 11
120.59600067138672
 21
-91.4489974975586
 31
0.0
  0
LINE
  8
0
 62
0
 10
120.59600067138672
 20
-91.4489974975586
 30
0.0
 11
121.01599884033203
 21
-90.61599731445312
 31
0.0
  0
LINE
  8
0
 62
0
 10
121.01599884033203
 20
-90.61599731445312
 30
0.0
 11
121.57099914550781
 21
-89.86599731445312
 31
0.0
  0
LINE
  8
0
 62
0
 10
121.57099914550781
 20
-89.86599731445312
 30
0.0
 11
122.2449951171875
 21
-89.22100067138672
 31
0.0
  0
LINE
  8
0
 62
0
 10
117.1240005493164
 20
-127.84400177001953
 30
0.0
 11
117.36000061035156
 21
-127.375
 31
0.0
  0
LINE
  8
0
 62
0
 10
117.36000061035156
 20
-127.375
 30
0.0
 11
117.67300415039062
 21
-126.95199584960938
 31
0.0
  0
LINE
  8
0
 62
0
 10
117.67300415039062
 20
-126.95199584960938
 30
0.0
 11
118.0530014038086
 21
-126.58799743652344
 31
0.0
  0
LINE
  8
0
 62
0
 10
118.0530014038086
 20
-126.58799743652344
 30
0.0
 11
118.48799896240234
 21
-126.29399871826172
 31
0.0
  0
LINE
  8
0
 62
0
 10
118.48799896240234
 20
-126.29399871826172
 30
0.0
 11
118.96699523925781
 21
-126.07699584960938
 31
0.0
  0
LINE
  8
0
 62
0
 10
118.96699523925781
 20
-126.07699584960938
 30
0.0
 11
119.47599792480469
 21
-125.94499969482422
 31
0.0
  0
LINE
  8
0
 62
0
 10
119.47599792480469
 20
-125.94499969482422
 30
0.0
 11
120.0
 21
-125.9000015258789
 31
0.0
  0
LINE
  8
0
 62
0
 10
120.0
 20
-125.9000015258789
 30
0.0
 11
120.52400207519531
 21
-125.94499969482422
 31
0.0
  0
LINE
  8
0
 62
0
 10
120.52400207519531
 20
-125.94499969482422
 30
0.0
 11
121.03300476074219
 21
-126.07699584960938
 31
0.0
  0
LINE
  8
0
 62
0
 10
121.03300476074219
 20
-126.07699584960938
 30
0.0
 11
121.51200103759766
 21
-126.29399871826172
 31
0.0
  0
LINE
  8
0
 62
0
 10
121.51200103759766
 20
-126.29399871826172
 30
0.0
 11
121.9469985961914
 21
-126.58799743652344
 31
0.0
  0
LINE
  8
0
 62
0
 10
121.9469985961914
 20
-126.58799743652344
 30
0.0
 11
122.32699584960938
 21
-126.95199584960938
 31
0.0
  0
LINE
  8
0
 62
0
 10
122.32699584960938
 20
-126.95199584960938
 30
0.0
 11
122.63999938964844
 21
-127.375
 31
0.0
  0
LINE
  8
0
 62
0
 10
122.63999938964844
 20
-127.375
 30
0.0
 11
122.8759994506836
 21
-127.84400177001953
 31
0.0
  0
LINE
  8
0
 62
0
 10
122.8759994506836
 20
-127.84400177001953
 30
0.0
 11
123.02999877929688
 21
-128.3470001220703
 31
0.0
  0
LINE
  8
0
 62
0
 10
123.02999877929688
 20
-128.3470001220703
 30
0.0
 11
123.09700012207031
 21
-128.8679962158203
 31
0.0
  0
LINE
  8
0
 62
0
 10
123.09700012207031
 20
-128.8679962158203
 30
0.0
 11
123.07499694824219
 21
-129.3939971923828
 31
0.0
  0
LINE
  8
0
 62
0
 10
123.07499694824219
 20
-129.3939971923828
 30
0.0
 11
122.96400451660156
 21
-129.9080047607422
 31
0.0
  0
LINE
  8
0
 62
0
 10
122.96400451660156
 20
-129.9080047607422
 30
0.0
 11
122.76800537109375
 21
-130.39599609375
 31
0.0
  0
LINE
  8
0
 62
0
 10
122.76800537109375
 20
-130.39599609375
 30
0.0
 11
122.49200439453125
 21
-130.84300231933594
 31
0.0
  0
LINE
  8
0
 62
0
 10
122.49200439453125
 20
-130.84300231933594
 30
0.0
 11
122.14500427246094
 21
-131.23800659179688
 31
0.0
  0
LINE
  8
0
 62
0
 10
122.14500427246094
 20
-131.23800659179688
 30
0.0
 11
121.73600006103516
 21
-131.5679931640625
 31
0.0
  0
LINE
  8
0
 62
0
 10
121.73600006103516
 20
-131.5679931640625
 30
0.0
 11
121.2770004272461
 21
-131.8249969482422
 31
0.0
  0
LINE
  8
0
 62
0
 10
121.2770004272461
 20
-131.8249969482422
 30
0.0
 11
120.78099822998047
 21
-132.0
 31
0.0
  0
LINE
  8
0
 62
0
 10
120.78099822998047
 20
-132.0
 30
0.0
 11
120.26300048828125
 21
-132.08900451660156
 31
0.0
  0
LINE
  8
0
 62
0
 10
120.26300048828125
 20
-132.08900451660156
 30
0.0
 11
119.73699951171875
 21
-132.08900451660156
 31
0.0
  0
LINE
  8
0
 62
0
 10
119.73699951171875
 20
-132.08900451660156
 30
0.0
 11
119.21900177001953
 21
-132.0
 31
0.0
  0
LINE
  8
0
 62
0
 10
119.21900177001953
 20
-132.0
 30
0.0
 11
118.7229995727539
 21
-131.8249969482422
 31
0.0
  0
LINE
  8
0
 62
0
 10
118.7229995727539
 20
-131.8249969482422
 30
0.0
 11
118.26399993896484
 21
-131.5679931640625
 31
0.0
  0
LINE
  8
0
 62
0
 10
118.26399993896484
 20
-131.5679931640625
 30
0.0
 11
117.85499572753906
 21
-131.23800659179688
 31
0.0
  0
LINE
  8
0
 62
0
 10
117.85499572753906
 20
-131.23800659179688
 30
0.0
 11
117.50799560546875
 21
-130.84300231933594
 31
0.0
  0
LINE
  8
0
 62
0
 10
117.50799560546875
 20
-130.84300231933594
 30
0.0
 11
117.23199462890625
 21
-130.39599609375
 31
0.0
  0
LINE
  8
0
 62
0
 10
117.23199462890625
 20
-130.39599609375
 30
0.0
 11
117.03599548339844
 21
-129.9080047607422
 31
0.0
  0
LINE
  8
0
 62
0
 10
117.03599548339844
 20
-129.9080047607422
 30
0.0
 11
116.92500305175781
 21
-129.3939971923828
 31
0.0
  0
LINE
  8
0
 62
0
 10
116.92500305175781
 20
-129.3939971923828
 30
0.0
 11
116.90299987792969
 21
-128.8679962158203
 31
0.0
  0
LINE
  8
0
 62
0
 10
116.90299987792969
 20
-128.8679962158203
 30
0.0
 11
116.97000122070312
 21
-128.3470001220703
 31
0.0
  0
LINE
  8
0
 62
0
 10
116.97000122070312
 20
-128.3470001220703
 30
0.0
 11
117.1240005493164
 21
-127.84400177001953
 31
0.0
  0
LINE
  8
0
 62
0
 10
201.9029998779297
 20
-128.8679962158203
 30
0.0
 11
201.97000122070312
 21
-128.3470001220703
 31
0.0
  0
LINE
  8
0
 62
0
 10
201.97000122070312
 20
-128.3470001220703
 30
0.0
 11
202.12399291992188
 21
-127.84400177001953
 31
0.0
  0
LINE
  8
0
 62
0
 10
202.12399291992188
 20
-127.84400177001953
 30
0.0
 11
202.36000061035156
 21
-127.375
 31
0.0
  0
LINE
  8
0
 62
0
 10
202.36000061035156
 20
-127.375
 30
0.0
 11
202.67300415039062
 21
-126.95199584960938
 31
0.0
  0
LINE
  8
0
 62
0
 10
202.67300415039062
 20
-126.95199584960938
 30
0.0
 11
203.05300903320312
 21
-126.58799743652344
 31
0.0
  0
LINE
  8
0
 62
0
 10
203.05300903320312
 20
-126.58799743652344
 30
0.0
 11
203.48800659179688
 21
-126.29399871826172
 31
0.0
  0
LINE
  8
0
 62
0
 10
203.48800659179688
 20
-126.29399871826172
 30
0.0
 11
203.9669952392578
 21
-126.07699584960938
 31
0.0
  0
LINE
  8
0
 62
0
 10
203.9669952392578
 20
-126.07699584960938
 30
0.0
 11
204.4759979248047
 21
-125.94499969482422
 31
0.0
  0
LINE
  8
0
 62
0
 10
204.4759979248047
 20
-125.94499969482422
 30
0.0
 11
205.0
 21
-125.9000015258789
 31
0.0
  0
LINE
  8
0
 62
0
 10
205.0
 20
-125.9000015258789
 30
0.0
 11
205.5240020751953
 21
-125.94499969482422
 31
0.0
  0
LINE
  8
0
 62
0
 10
205.5240020751953
 20
-125.94499969482422
 30
0.0
 11
206.0330047607422
 21
-126.07699584960938
 31
0.0
  0
LINE
  8
0
 62
0
 10
206.0330047607422
 20
-126.07699584960938
 30
0.0
 11
206.51199340820312
 21
-126.29399871826172
 31
0.0
  0
LINE
  8
0
 62
0
 10
206.51199340820312
 20
-126.29399871826172
 30
0.0
 11
206.94699096679688
 21
-126.58799743652344
 31
0.0
  0
LINE
  8
0
 62
0
 10
206.94699096679688
 20
-126.58799743652344
 30
0.0
 11
207.32699584960938
 21
-126.95199584960938
 31
0.0
  0
LINE
  8
0
 62
0
 10
207.32699584960938
 20
-126.95199584960938
 30
0.0
 11
207.63999938964844
 21
-127.375
 31
0.0
  0
LINE
  8
0
 62
0
 10
207.63999938964844
 20
-127.375
 30
0.0
 11
207.87600708007812
 21
-127.84400177001953
 31
0.0
  0
LINE
  8
0
 62
0
 10
207.87600708007812
 20
-127.84400177001953
 30
0.0
 11
208.02999877929688
 21
-128.3470001220703
 31
0.0
  0
LINE
  8
0
 62
0
 10
208.02999877929688
 20
-128.3470001220703
 30
0.0
 11
208.0970001220703
 21
-128.8679962158203
 31
0.0
  0
LINE
  8
0
 62
0
 10
208.0970001220703
 20
-128.8679962158203
 30
0.0
 11
208.0749969482422
 21
-129.3939971923828
 31
0.0
  0
LINE
  8
0
 62
0
 10
208.0749969482422
 20
-129.3939971923828
 30
0.0
 11
207.96400451660156
 21
-129.9080047607422
 31
0.0
  0
LINE
  8
0
 62
0
 10
207.96400451660156
 20
-129.9080047607422
 30
0.0
 11
207.76800537109375
 21
-130.39599609375
 31
0.0
  0
LINE
  8
0
 62
0
 10
207.76800537109375
 20
-130.39599609375
 30
0.0
 11
207.49200439453125
 21
-130.84300231933594
 31
0.0
  0
LINE
  8
0
 62
0
 10
207.49200439453125
 20
-130.84300231933594
 30
0.0
 11
207.14500427246094
 21
-131.23800659179688
 31
0.0
  0
LINE
  8
0
 62
0
 10
207.14500427246094
 20
-131.23800659179688
 30
0.0
 11
206.73599243164062
 21
-131.5679931640625
 31
0.0
  0
LINE
  8
0
 62
0
 10
206.73599243164062
 20
-131.5679931640625
 30
0.0
 11
206.27700805664062
 21
-131.8249969482422
 31
0.0
  0
LINE
  8
0
 62
0
 10
206.27700805664062
 20
-131.8249969482422
 30
0.0
 11
205.781005859375
 21
-132.0
 31
0.0
  0
LINE
  8
0
 62
0
 10
205.781005859375
 20
-132.0
 30
0.0
 11
205.26300048828125
 21
-132.08900451660156
 31
0.0
  0
LINE
  8
0
 62
0
 10
205.26300048828125
 20
-132.08900451660156
 30
0.0
 11
204.73699951171875
 21
-132.08900451660156
 31
0.0
  0
LINE
  8
0
 62
0
 10
204.73699951171875
 20
-132.08900451660156
 30
0.0
 11
204.218994140625
 21
-132.0
 31
0.0
  0
LINE
  8
0
 62
0
 10
204.218994140625
 20
-132.0
 30
0.0
 11
203.72299194335938
 21
-131.8249969482422
 31
0.0
  0
LINE
  8
0
 62
0
 10
203.72299194335938
 20
-131.8249969482422
 30
0.0
 11
203.26400756835938
 21
-131.5679931640625
 31
0.0
  0
LINE
  8
0
 62
0
 10
202.85499572753906
 20
-131.23800659179688
 30
0.0
 11
203.26400756835938
 21
-131.5679931640625
 31
0.0
  0
LINE
  8
0
 62
0
 10
202.50799560546875
 20
-130.84300231933594
 30
0.0
 11
202.85499572753906
 21
-131.23800659179688
 31
0.0
  0
LINE
  8
0
 62
0
 10
202.23199462890625
 20
-130.39599609375
 30
0.0
 11
202.50799560546875
 21
-130.84300231933594
 31
0.0
  0
LINE
  8
0
 62
0
 10
202.03599548339844
 20
-129.9080047607422
 30
0.0
 11
202.23199462890625
 21
-130.39599609375
 31
0.0
  0
LINE
  8
0
 62
0
 10
202.03599548339844
 20
-129.9080047607422
 30
0.0
 11
201.9250030517578
 21
-129.3939971923828
 31
0.0
  0
LINE
  8
0
 62
0
 10
201.9250030517578
 20
-129.3939971923828
 30
0.0
 11
201.9029998779297
 21
-128.8679962158203
 31
0.0
  0
LINE
  8
0
 62
0
 10
116.92500305175781
 20
-58.39400100708008
 30
0.0
 11
116.90299987792969
 21
-57.86800003051758
 31
0.0
  0
LINE
  8
0
 62
0
 10
116.90299987792969
 20
-57.86800003051758
 30
0.0
 11
116.97000122070312
 21
-57.34700012207031
 31
0.0
  0
LINE
  8
0
 62
0
 10
116.97000122070312
 20
-57.34700012207031
 30
0.0
 11
117.1240005493164
 21
-56.84400177001953
 31
0.0
  0
LINE
  8
0
 62
0
 10
117.1240005493164
 20
-56.84400177001953
 30
0.0
 11
117.36000061035156
 21
-56.375
 31
0.0
  0
LINE
  8
0
 62
0
 10
117.36000061035156
 20
-56.375
 30
0.0
 11
117.67300415039062
 21
-55.95199966430664
 31
0.0
  0
LINE
  8
0
 62
0
 10
117.67300415039062
 20
-55.95199966430664
 30
0.0
 11
118.0530014038086
 21
-55.5880012512207
 31
0.0
  0
LINE
  8
0
 62
0
 10
118.0530014038086
 20
-55.5880012512207
 30
0.0
 11
118.48799896240234
 21
-55.29399871826172
 31
0.0
  0
LINE
  8
0
 62
0
 10
118.48799896240234
 20
-55.29399871826172
 30
0.0
 11
118.96699523925781
 21
-55.07699966430664
 31
0.0
  0
LINE
  8
0
 62
0
 10
118.96699523925781
 20
-55.07699966430664
 30
0.0
 11
119.47599792480469
 21
-54.94499969482422
 31
0.0
  0
LINE
  8
0
 62
0
 10
119.47599792480469
 20
-54.94499969482422
 30
0.0
 11
120.0
 21
-54.900001525878906
 31
0.0
  0
LINE
  8
0
 62
0
 10
120.0
 20
-54.900001525878906
 30
0.0
 11
120.52400207519531
 21
-54.94499969482422
 31
0.0
  0
LINE
  8
0
 62
0
 10
120.52400207519531
 20
-54.94499969482422
 30
0.0
 11
121.03300476074219
 21
-55.07699966430664
 31
0.0
  0
LINE
  8
0
 62
0
 10
121.03300476074219
 20
-55.07699966430664
 30
0.0
 11
121.51200103759766
 21
-55.29399871826172
 31
0.0
  0
LINE
  8
0
 62
0
 10
121.51200103759766
 20
-55.29399871826172
 30
0.0
 11
121.9469985961914
 21
-55.5880012512207
 31
0.0
  0
LINE
  8
0
 62
0
 10
122.32699584960938
 20
-55.95199966430664
 30
0.0
 11
121.9469985961914
 21
-55.5880012512207
 31
0.0
  0
LINE
  8
0
 62
0
 10
122.63999938964844
 20
-56.375
 30
0.0
 11
122.32699584960938
 21
-55.95199966430664
 31
0.0
  0
LINE
  8
0
 62
0
 10
122.8759994506836
 20
-56.84400177001953
 30
0.0
 11
122.63999938964844
 21
-56.375
 31
0.0
  0
LINE
  8
0
 62
0
 10
122.8759994506836
 20
-56.84400177001953
 30
0.0
 11
123.02999877929688
 21
-57.34700012207031
 31
0.0
  0
LINE
  8
0
 62
0
 10
123.02999877929688
 20
-57.34700012207031
 30
0.0
 11
123.09700012207031
 21
-57.86800003051758
 31
0.0
  0
LINE
  8
0
 62
0
 10
123.09700012207031
 20
-57.86800003051758
 30
0.0
 11
123.07499694824219
 21
-58.39400100708008
 31
0.0
  0
LINE
  8
0
 62
0
 10
123.07499694824219
 20
-58.39400100708008
 30
0.0
 11
122.96400451660156
 21
-58.90800094604492
 31
0.0
  0
LINE
  8
0
 62
0
 10
122.96400451660156
 20
-58.90800094604492
 30
0.0
 11
122.76800537109375
 21
-59.395999908447266
 31
0.0
  0
LINE
  8
0
 62
0
 10
122.76800537109375
 20
-59.395999908447266
 30
0.0
 11
122.49200439453125
 21
-59.84299850463867
 31
0.0
  0
LINE
  8
0
 62
0
 10
122.49200439453125
 20
-59.84299850463867
 30
0.0
 11
122.14500427246094
 21
-60.237998962402344
 31
0.0
  0
LINE
  8
0
 62
0
 10
122.14500427246094
 20
-60.237998962402344
 30
0.0
 11
121.73600006103516
 21
-60.56800079345703
 31
0.0
  0
LINE
  8
0
 62
0
 10
121.73600006103516
 20
-60.56800079345703
 30
0.0
 11
121.2770004272461
 21
-60.82500076293945
 31
0.0
  0
LINE
  8
0
 62
0
 10
121.2770004272461
 20
-60.82500076293945
 30
0.0
 11
120.78099822998047
 21
-61.0
 31
0.0
  0
LINE
  8
0
 62
0
 10
120.78099822998047
 20
-61.0
 30
0.0
 11
120.26300048828125
 21
-61.0890007019043
 31
0.0
  0
LINE
  8
0
 62
0
 10
120.26300048828125
 20
-61.0890007019043
 30
0.0
 11
119.73699951171875
 21
-61.0890007019043
 31
0.0
  0
LINE
  8
0
 62
0
 10
119.73699951171875
 20
-61.0890007019043
 30
0.0
 11
119.21900177001953
 21
-61.0
 31
0.0
  0
LINE
  8
0
 62
0
 10
119.21900177001953
 20
-61.0
 30
0.0
 11
118.7229995727539
 21
-60.82500076293945
 31
0.0
  0
LINE
  8
0
 62
0
 10
118.7229995727539
 20
-60.82500076293945
 30
0.0
 11
118.26399993896484
 21
-60.56800079345703
 31
0.0
  0
LINE
  8
0
 62
0
 10
118.26399993896484
 20
-60.56800079345703
 30
0.0
 11
117.85499572753906
 21
-60.237998962402344
 31
0.0
  0
LINE
  8
0
 62
0
 10
117.85499572753906
 20
-60.237998962402344
 30
0.0
 11
117.50799560546875
 21
-59.84299850463867
 31
0.0
  0
LINE
  8
0
 62
0
 10
117.50799560546875
 20
-59.84299850463867
 30
0.0
 11
117.23199462890625
 21
-59.395999908447266
 31
0.0
  0
LINE
  8
0
 62
0
 10
117.23199462890625
 20
-59.395999908447266
 30
0.0
 11
117.03599548339844
 21
-58.90800094604492
 31
0.0
  0
LINE
  8
0
 62
0
 10
117.03599548339844
 20
-58.90800094604492
 30
0.0
 11
116.92500305175781
 21
-58.39400100708008
 31
0.0
  0
LINE
  8
0
 62
0
 10
205.26300048828125
 20
-61.0890007019043
 30
0.0
 11
204.73699951171875
 21
-61.0890007019043
 31
0.0
  0
LINE
  8
0
 62
0
 10
204.73699951171875
 20
-61.0890007019043
 30
0.0
 11
204.218994140625
 21
-61.0
 31
0.0
  0
LINE
  8
0
 62
0
 10
204.218994140625
 20
-61.0
 30
0.0
 11
203.72299194335938
 21
-60.82500076293945
 31
0.0
  0
LINE
  8
0
 62
0
 10
203.72299194335938
 20
-60.82500076293945
 30
0.0
 11
203.26400756835938
 21
-60.56800079345703
 31
0.0
  0
LINE
  8
0
 62
0
 10
203.26400756835938
 20
-60.56800079345703
 30
0.0
 11
202.85499572753906
 21
-60.237998962402344
 31
0.0
  0
LINE
  8
0
 62
0
 10
202.85499572753906
 20
-60.237998962402344
 30
0.0
 11
202.50799560546875
 21
-59.84299850463867
 31
0.0
  0
LINE
  8
0
 62
0
 10
202.50799560546875
 20
-59.84299850463867
 30
0.0
 11
202.23199462890625
 21
-59.395999908447266
 31
0.0
  0
LINE
  8
0
 62
0
 10
202.23199462890625
 20
-59.395999908447266
 30
0.0
 11
202.03599548339844
 21
-58.90800094604492
 31
0.0
  0
LINE
  8
0
 62
0
 10
202.03599548339844
 20
-58.90800094604492
 30
0.0
 11
201.9250030517578
 21
-58.39400100708008
 31
0.0
  0
LINE
  8
0
 62
0
 10
201.9250030517578
 20
-58.39400100708008
 30
0.0
 11
201.9029998779297
 21
-57.86800003051758
 31
0.0
  0
LINE
  8
0
 62
0
 10
201.9029998779297
 20
-57.86800003051758
 30
0.0
 11
201.97000122070312
 21
-57.34700012207031
 31
0.0
  0
LINE
  8
0
 62
0
 10
201.97000122070312
 20
-57.34700012207031
 30
0.0
 11
202.12399291992188
 21
-56.84400177001953
 31
0.0
  0
LINE
  8
0
 62
0
 10
202.12399291992188
 20
-56.84400177001953
 30
0.0
 11
202.36000061035156
 21
-56.375
 31
0.0
  0
LINE
  8
0
 62
0
 10
202.36000061035156
 20
-56.375
 30
0.0
 11
202.67300415039062
 21
-55.95199966430664
 31
0.0
  0
LINE
  8
0
 62
0
 10
202.67300415039062
 20
-55.95199966430664
 30
0.0
 11
203.05300903320312
 21
-55.5880012512207
 31
0.0
  0
LINE
  8
0
 62
0
 10
203.05300903320312
 20
-55.5880012512207
 30
0.0
 11
203.48800659179688
 21
-55.29399871826172
 31
0.0
  0
LINE
  8
0
 62
0
 10
203.48800659179688
 20
-55.29399871826172
 30
0.0
 11
203.9669952392578
 21
-55.07699966430664
 31
0.0
  0
LINE
  8
0
 62
0
 10
203.9669952392578
 20
-55.07699966430664
 30
0.0
 11
204.4759979248047
 21
-54.94499969482422
 31
0.0
  0
LINE
  8
0
 62
0
 10
204.4759979248047
 20
-54.94499969482422
 30
0.0
 11
205.0
 21
-54.900001525878906
 31
0.0
  0
LINE
  8
0
 62
0
 10
205.0
 20
-54.900001525878906
 30
0.0
 11
205.5240020751953
 21
-54.94499969482422
 31
0.0
  0
LINE
  8
0
 62
0
 10
205.5240020751953
 20
-54.94499969482422
 30
0.0
 11
206.0330047607422
 21
-55.07699966430664
 31
0.0
  0
LINE
  8
0
 62
0
 10
206.0330047607422
 20
-55.07699966430664
 30
0.0
 11
206.51199340820312
 21
-55.29399871826172
 31
0.0
  0
LINE
  8
0
 62
0
 10
206.51199340820312
 20
-55.29399871826172
 30
0.0
 11
206.94699096679688
 21
-55.5880012512207
 31
0.0
  0
LINE
  8
0
 62
0
 10
206.94699096679688
 20
-55.5880012512207
 30
0.0
 11
207.32699584960938
 21
-55.95199966430664
 31
0.0
  0
LINE
  8
0
 62
0
 10
207.32699584960938
 20
-55.95199966430664
 30
0.0
 11
207.63999938964844
 21
-56.375
 31
0.0
  0
LINE
  8
0
 62
0
 10
207.63999938964844
 20
-56.375
 30
0.0
 11
207.87600708007812
 21
-56.84400177001953
 31
0.0
  0
LINE
  8
0
 62
0
 10
207.87600708007812
 20
-56.84400177001953
 30
0.0
 11
208.02999877929688
 21
-57.34700012207031
 31
0.0
  0
LINE
  8
0
 62
0
 10
208.02999877929688
 20
-57.34700012207031
 30
0.0
 11
208.0970001220703
 21
-57.86800003051758
 31
0.0
  0
LINE
  8
0
 62
0
 10
208.0970001220703
 20
-57.86800003051758
 30
0.0
 11
208.0749969482422
 21
-58.39400100708008
 31
0.0
  0
LINE
  8
0
 62
0
 10
208.0749969482422
 20
-58.39400100708008
 30
0.0
 11
207.96400451660156
 21
-58.90800094604492
 31
0.0
  0
LINE
  8
0
 62
0
 10
207.96400451660156
 20
-58.90800094604492
 30
0.0
 11
207.76800537109375
 21
-59.395999908447266
 31
0.0
  0
LINE
  8
0
 62
0
 10
207.76800537109375
 20
-59.395999908447266
 30
0.0
 11
207.49200439453125
 21
-59.84299850463867
 31
0.0
  0
LINE
  8
0
 62
0
 10
207.49200439453125
 20
-59.84299850463867
 30
0.0
 11
207.14500427246094
 21
-60.237998962402344
 31
0.0
  0
LINE
  8
0
 62
0
 10
207.14500427246094
 20
-60.237998962402344
 30
0.0
 11
206.73599243164062
 21
-60.56800079345703
 31
0.0
  0
LINE
  8
0
 62
0
 10
206.73599243164062
 20
-60.56800079345703
 30
0.0
 11
206.27700805664062
 21
-60.82500076293945
 31
0.0
  0
LINE
  8
0
 62
0
 10
206.27700805664062
 20
-60.82500076293945
 30
0.0
 11
205.781005859375
 21
-61.0
 31
0.0
  0
LINE
  8
0
 62
0
 10
205.781005859375
 20
-61.0
 30
0.0
 11
205.26300048828125
 21
-61.0890007019043
 31
0.0
  0
ENDBLK
  0
ENDSEC
  0
SECTION
  2
ENTITIES
  0
INSERT
  2
ASDA001001_SOLID
  8
0
 62
0
 10
0.0
 20
0.0
 30
0.0
  0
ENDSEC
  0
EOF
